<?xml version="1.0" encoding="UTF-8"?>
<svg version="1.1" xmlns="http://www.w3.org/2000/svg" width="499" height="499">
<path d="M0 0 C2.3125 1.125 2.3125 1.125 4 3 C5.35504391 7.45228715 4.92845164 9.86316019 3 14 C1.96145185 15.59261894 0.87492062 17.15466897 -0.25 18.6875 C-13.84890331 37.7653003 -21.80659524 58.32522387 -27 81 C-27.28875 82.13695312 -27.5775 83.27390625 -27.875 84.4453125 C-30.24268612 94.25755017 -30.74968354 103.95126013 -31 114 C-31.04447266 115.71703125 -31.04447266 115.71703125 -31.08984375 117.46875 C-31.12599605 120.65015258 -31.07483925 123.81933204 -31 127 C-30.99226563 128.92199219 -30.99226563 128.92199219 -30.984375 130.8828125 C-30.44194985 160.53080999 -19.1006234 193.95468264 0 217 C1.81925632 214.22779989 3.10054982 211.70893473 4.1875 208.5625 C8.67614181 196.31656439 16.42310437 186.60042245 25 177 C25.60585937 176.26136719 26.21171875 175.52273438 26.8359375 174.76171875 C31.83460409 168.67797575 37.87884285 163.90359728 44 159 C44.88429687 158.24203125 45.76859375 157.4840625 46.6796875 156.703125 C49 155 49 155 52 155 C52 154.34 52 153.68 52 153 C54.51953125 151.30859375 54.51953125 151.30859375 57.8125 149.4375 C58.89144531 148.81746094 59.97039062 148.19742188 61.08203125 147.55859375 C65.57266787 145.15998062 68.91916149 144.31107274 74 145 C75.47485352 146.30102539 75.47485352 146.30102539 76.87890625 148.03515625 C77.39573975 148.67275879 77.91257324 149.31036133 78.44506836 149.96728516 C80.93712349 153.22507304 83.29843091 156.56014589 85.625 159.9375 C90.30558513 166.66909463 95.13605647 173.2592423 100.16650391 179.73413086 C102.6974625 183.04142806 104.69736644 185.98482361 106 190 C106.66 190 107.32 190 108 190 C108.95451261 191.36358945 109.89848042 192.73588776 110.78515625 194.14453125 C112.61297045 196.93620889 114.68064803 199.53693305 116.73046875 202.16796875 C118 204 118 204 119 207 C119.98833937 208.01152622 120.99058887 209.00950055 122 210 C123.25692525 211.70909536 124.48463195 213.43993698 125.6875 215.1875 C126.31011719 216.08855469 126.93273437 216.98960937 127.57421875 217.91796875 C128.04472656 218.60503906 128.51523438 219.29210937 129 220 C129.17128418 219.42967041 129.34256836 218.85934082 129.51904297 218.27172852 C130.29640597 215.69950207 131.08552899 213.13103475 131.875 210.5625 C132.27912109 209.21575195 132.27912109 209.21575195 132.69140625 207.84179688 C133.08779297 206.56079102 133.08779297 206.56079102 133.4921875 205.25390625 C133.73308105 204.46314697 133.97397461 203.6723877 134.22216797 202.85766602 C135 201 135 201 137 200 C139.66188793 199.82331321 142.27381958 199.7226409 144.9375 199.6875 C145.66646484 199.65849609 146.39542969 199.62949219 147.14648438 199.59960938 C152.4456467 199.53646629 152.4456467 199.53646629 154.8359375 201.53515625 C156.40419226 204.85585677 157.5931328 208.25199247 158.6875 211.75 C158.91244141 212.44738281 159.13738281 213.14476562 159.36914062 213.86328125 C159.91963366 215.57332344 160.46076237 217.28637529 161 219 C161.680625 218.2575 161.680625 218.2575 162.375 217.5 C164 216 164 216 166 216 C166.0825 215.45601562 166.165 214.91203125 166.25 214.3515625 C167.25829987 211.1901223 169.00531088 209.01796309 171 206.375 C173.73181827 202.83101471 173.73181827 202.83101471 176 199 C176.66 199 177.32 199 178 199 C178.30744141 198.01 178.30744141 198.01 178.62109375 197 C180.52626507 192.85503804 183.24276591 189.56486382 186.0625 186 C191.64484768 178.82743093 196.89515056 171.52188031 202 164 C214.13819369 146.43090316 214.13819369 146.43090316 217 145 C233.98582205 145 249.51507614 160.67534907 261 172 C270.60551371 181.70410403 278.32460154 192.28974907 284.5 204.4375 C284.83854004 205.09967529 285.17708008 205.76185059 285.52587891 206.4440918 C287.40501987 210.2846044 288.52707248 213.75022078 289 218 C289.66 218 290.32 218 291 218 C291.26683594 217.26265625 291.53367187 216.5253125 291.80859375 215.765625 C292.97736264 213.05254837 294.28063128 211.09212532 296.0625 208.75 C310.70934921 187.9775534 318.90471969 163.24290203 321 138 C321.07686035 137.18015625 321.1537207 136.3603125 321.23291016 135.515625 C324.78958899 96.08995635 314.56740684 54.01745963 292.4296875 21.14453125 C292.01259521 20.52046387 291.59550293 19.89639648 291.16577148 19.25341797 C290.01382138 17.5503361 288.83400424 15.8661975 287.65234375 14.18359375 C285.72480819 10.4697841 285.60787122 8.12976131 286 4 C287 1.5625 287 1.5625 289 0 C293.56376055 -0.66248137 295.75076192 -0.90569761 299.5 1.8125 C300.36332165 2.85078052 301.19210065 3.9180345 302 5 C302.57105469 5.70898438 303.14210938 6.41796875 303.73046875 7.1484375 C310.16297247 15.4940012 315.08824524 24.70622093 320 34 C320.34409912 34.63276855 320.68819824 35.26553711 321.04272461 35.91748047 C324.05476977 41.63573461 326.05835803 47.6178662 328.0625 53.75 C328.40087891 54.75804687 328.73925781 55.76609375 329.08789062 56.8046875 C331.39909216 63.79640742 333.30894404 70.83394109 335 78 C335.47050781 77.00097656 335.94101562 76.00195312 336.42578125 74.97265625 C337.05415545 73.66901425 337.68309095 72.36564269 338.3125 71.0625 C338.62123047 70.40314453 338.92996094 69.74378906 339.24804688 69.06445312 C340.08950978 67.33723979 341.03947665 65.6639473 342 64 C343.485 63.505 343.485 63.505 345 63 C345.103125 62.4225 345.20625 61.845 345.3125 61.25 C346.42403837 57.61223807 348.97206881 56.22460251 352 54 C352.66 54 353.32 54 354 54 C354 53.34 354 52.68 354 52 C363.89332264 46.66485742 375.36283005 40.69494518 387 43 C391.46571394 47.32616038 392.07420427 55.82774116 392.30078125 61.83203125 C392.32021434 63.49207835 392.32376052 65.15237734 392.3125 66.8125 C392.30686035 67.6890625 392.3012207 68.565625 392.29541016 69.46875 C392.01067869 84.73712223 386.55021958 98.77921561 376 110 C366.92899127 118.14160209 354.97533013 124.17644939 342.8125 125.625 C341.884375 125.74875 340.95625 125.8725 340 126 C338.73762269 128.52475462 338.90143596 130.31200466 338.9375 133.125 C338.94652344 134.03507813 338.95554687 134.94515625 338.96484375 135.8828125 C338.97644531 136.58148438 338.98804688 137.28015625 339 138 C340.16402344 137.45859375 340.16402344 137.45859375 341.3515625 136.90625 C352.5252171 132.10611199 361.82650812 131.31306945 373.4375 135.1875 C378.58478773 137.24641509 382.97396707 139.16122442 387 143 C388.1875 145.9375 388.1875 145.9375 388 149 C385.73089395 153.53821211 382.56300776 156.46910509 378.68359375 159.60546875 C376.98124346 160.96642252 376.98124346 160.96642252 375.5078125 162.5234375 C368.71921222 169.1713414 358.93673345 173.18964573 349.5546875 173.390625 C347.32778574 173.36442616 345.10103879 173.31729885 342.875 173.25 C341.72773438 173.23195313 340.58046875 173.21390625 339.3984375 173.1953125 C336.59805576 173.14863947 333.79949437 173.08318498 331 173 C330.855625 173.94875 330.71125 174.8975 330.5625 175.875 C330 179 330 179 329 181 C330.010625 180.67 331.02125 180.34 332.0625 180 C341.65181487 177.63247821 352.9827149 177.69390878 362 182 C365.49191084 184.14380012 368.75828672 186.49762484 372 189 C372.74507813 189.50789062 373.49015625 190.01578125 374.2578125 190.5390625 C376 192 376 192 376.5 194.875 C375.71659253 199.77129671 372.96634427 202.21618743 369.1875 205.28125 C360.32170173 211.45254095 351.1010251 217.37164009 340 218 C339.31679688 218.03867187 338.63359375 218.07734375 337.9296875 218.1171875 C332.33512774 218.29262666 326.23910678 218.09960423 321 216 C319.71484375 213.921875 319.71484375 213.921875 319 212 C320.39365 211.20449608 321.79003431 210.41378162 323.1875 209.625 C323.96480469 209.18414062 324.74210937 208.74328125 325.54296875 208.2890625 C327.97944983 207.01078149 330.42977507 205.97695939 333 205 C330.72844502 205.08702126 328.45769257 205.19519522 326.1875 205.3125 C324.29064453 205.39951172 324.29064453 205.39951172 322.35546875 205.48828125 C319.0953953 205.72861729 319.0953953 205.72861729 317.1875 207.28515625 C315.88046991 209.17261088 314.83356679 211.06812178 313.8125 213.125 C311.40763366 217.58808527 308.46270083 221.06035543 305.0234375 224.76171875 C303.11915256 226.86819611 301.43607454 229.03013081 299.75 231.3125 C291.34300355 242.22451571 280.93817849 250.76770943 270 259 C269.17886719 259.63164062 268.35773438 260.26328125 267.51171875 260.9140625 C226.91751299 291.95219346 170.20362493 305.39291598 119.89746094 299.57226562 C112.47434042 298.51434805 105.25259296 296.87925785 98 295 C96.42378977 294.63277689 94.84699768 294.26803886 93.26953125 293.90625 C71.70290289 288.70075667 49.12822808 278.83914594 31 266 C28.42195296 264.41801659 25.83157542 262.90643079 23.1875 261.4375 C22.1046875 260.7259375 22.1046875 260.7259375 21 260 C21 259.34 21 258.68 21 258 C20.26394531 257.74605469 19.52789062 257.49210937 18.76953125 257.23046875 C15.83330485 255.92593939 14.03072137 254.49293817 11.6875 252.3125 C8.79297167 249.64838188 5.8802435 247.03840956 2.875 244.5 C-7.06032045 235.81903864 -7.06032045 235.81903864 -9 230 C-9.99 229.67 -10.98 229.34 -12 229 C-14.015625 226.62890625 -14.015625 226.62890625 -16.25 223.5625 C-16.6411499 223.0277002 -17.0322998 222.49290039 -17.43530273 221.94189453 C-18.63146644 220.30017746 -19.81616916 218.65062391 -21 217 C-21.70769531 216.02675781 -22.41539063 215.05351562 -23.14453125 214.05078125 C-28 207.27685845 -28 207.27685845 -28 205 C-33.28 205 -38.56 205 -44 205 C-41.091875 206.11375 -41.091875 206.11375 -38.125 207.25 C-32.34038462 209.46538462 -32.34038462 209.46538462 -30.6171875 212.171875 C-30.41351563 212.77515625 -30.20984375 213.3784375 -30 214 C-37.31922702 219.07557612 -46.69396214 218.53720437 -55.25 217.375 C-66.92249554 215.03430036 -77.61959413 207.92801747 -85.01953125 198.62109375 C-86 197 -86 197 -86.3125 194.4375 C-82.38875002 187.15053575 -73.62219941 182.5065839 -66.00390625 180.0234375 C-56.0102835 177.35348086 -48.81330027 178.01874422 -39 181 C-39.66 178.36 -40.32 175.72 -41 173 C-41.68924561 173.02618408 -42.37849121 173.05236816 -43.08862305 173.0793457 C-72.85012962 174.06120448 -72.85012962 174.06120448 -85.4375 162.625 C-87.34010303 160.78958015 -89.16822443 158.90855659 -91 157 C-91.67546875 156.3090625 -92.3509375 155.618125 -93.046875 154.90625 C-95.87976783 151.83053778 -98 149.2965309 -98 145 C-94.08231611 139.12347416 -86.2648551 136.28033533 -79.8125 133.75 C-68.83380626 131.59025697 -60.05328667 133.17884838 -50 138 C-49.67 138.33 -49.34 138.66 -49 139 C-49 134.38 -49 129.76 -49 125 C-50.19625 125.103125 -51.3925 125.20625 -52.625 125.3125 C-65.48462618 125.25184139 -76.31251361 118.17223864 -85.43359375 109.75390625 C-91.72580554 103.29192146 -95.39426846 96.18031614 -99 88 C-99.52932129 86.88081177 -99.52932129 86.88081177 -100.06933594 85.73901367 C-101.81087694 80.61352875 -101.33235209 75.12691856 -101.31567383 69.76269531 C-101.31251952 67.63814702 -101.33597934 65.51500091 -101.36132812 63.390625 C-101.36360219 62.02343924 -101.36430411 60.65624977 -101.36328125 59.2890625 C-101.36626221 58.05881348 -101.36924316 56.82856445 -101.37231445 55.56103516 C-100.85822056 50.64393776 -99.58059938 46.58059938 -96 43 C-82.71165315 41.92835912 -70.06714894 46.66152583 -59.6484375 54.84765625 C-53.16157397 60.9463098 -48.09546604 68.66027352 -45 77 C-42.95567844 70.96490177 -40.97177049 64.92999882 -39.1875 58.8125 C-33.68249784 40.95843896 -25.40549974 24.32127053 -14.625 9.0625 C-14.01821411 8.20265503 -14.01821411 8.20265503 -13.39916992 7.32543945 C-9.52468991 2.02959076 -6.7979542 -0.84974427 0 0 Z M342.375 101.75 C341.55773437 102.26046875 340.74046875 102.7709375 339.8984375 103.296875 C339.27195312 103.85890625 338.64546875 104.4209375 338 105 C338 106.32 338 107.64 338 109 C340.49361571 107.79618552 342.68143083 106.54571278 345 105 C345 104.34 345 103.68 345 103 C345.66 103 346.32 103 347 103 C347.66 101.68 348.32 100.36 349 99 C346.17660211 99 344.73701056 100.23531387 342.375 101.75 Z M-48 156 C-48 156.66 -48 157.32 -48 158 C-47.01 158.33 -46.02 158.66 -45 159 C-45.33 158.01 -45.66 157.02 -46 156 C-46.66 156 -47.32 156 -48 156 Z " fill="#D7BBB3" transform="translate(101,160)"/>
<path d="M0 0 C1.21281026 0.57781366 2.41841484 1.17094333 3.6171875 1.77734375 C4.26171875 2.09026367 4.90625 2.40318359 5.5703125 2.72558594 C10.96193904 5.37118308 16.24647104 8.21332468 21.4921875 11.13671875 C24.7621774 12.85686968 28.08223674 14.29310532 31.4921875 15.71484375 C39.11421809 18.95904048 46.68189425 22.24252391 54.0546875 26.02734375 C62.89547739 30.51237889 72.00688114 34.35426946 81.11425781 38.26123047 C84.7626812 39.83124441 88.40539048 41.4139803 92.046875 43 C109.056178 50.40594443 109.056178 50.40594443 126.18530273 57.52929688 C130.84765619 59.42781252 135.42792633 61.46716983 139.98828125 63.59765625 C143.39384371 65.11714278 146.88198873 66.386251 150.3984375 67.625 C152.88591099 68.91978564 153.98091872 70.38497104 155.4921875 72.71484375 C153.4005194 75.00364087 151.55229815 76.33900263 148.71875 77.58203125 C147.98205078 77.90816406 147.24535156 78.23429687 146.48632812 78.5703125 C145.70451172 78.90675781 144.92269531 79.24320312 144.1171875 79.58984375 C143.31732422 79.93917969 142.51746094 80.28851563 141.69335938 80.6484375 C123.07514126 88.71484375 123.07514126 88.71484375 119.4921875 88.71484375 C119.4921875 113.13484375 119.4921875 137.55484375 119.4921875 162.71484375 C120.8121875 163.37484375 122.1321875 164.03484375 123.4921875 164.71484375 C125.87407314 166.87698763 127.30065819 168.55559907 127.83410645 171.78433228 C127.95543077 174.32973368 127.94171749 176.8430128 127.8828125 179.390625 C127.87715271 180.31578415 127.87149292 181.2409433 127.86566162 182.19413757 C127.8433323 185.13907361 127.79314236 188.08277761 127.7421875 191.02734375 C127.72211804 193.02797718 127.70386805 195.02862974 127.6875 197.02929688 C127.64347875 201.92495139 127.57447497 206.81968893 127.4921875 211.71484375 C125.1796875 212.83984375 125.1796875 212.83984375 122.4921875 213.71484375 C121.5021875 213.05484375 120.5121875 212.39484375 119.4921875 211.71484375 C118.9765625 212.04484375 118.4609375 212.37484375 117.9296875 212.71484375 C113.40087994 214.57281608 109.10617882 213.86834158 104.4921875 212.71484375 C103.5021875 213.04484375 102.5121875 213.37484375 101.4921875 213.71484375 C100.5021875 213.38484375 99.5121875 213.05484375 98.4921875 212.71484375 C96.85281621 209.43610117 97.30765505 205.80379461 97.2890625 202.19921875 C97.28336243 201.35063293 97.27766235 200.50204712 97.27178955 199.62774658 C97.26233352 197.82882943 97.25580318 196.02989491 97.25195312 194.23095703 C97.24227489 191.48959705 97.21126909 188.74899555 97.1796875 186.0078125 C97.1731546 184.25911903 97.16790526 182.5104202 97.1640625 180.76171875 C97.1517157 179.94588318 97.1393689 179.13004761 97.12664795 178.28948975 C97.14574314 173.36536465 97.70143453 169.94588368 100.4921875 165.71484375 C101.17256073 165.25579651 101.85293396 164.79674927 102.55392456 164.3237915 C104.64182314 162.89276251 104.64182314 162.89276251 105.09689331 160.69689941 C105.14210114 159.9222937 105.18730896 159.14768799 105.23388672 158.34960938 C105.28913513 157.45862549 105.34438354 156.5676416 105.40130615 155.6496582 C105.567461 150.28405076 105.63431112 144.92679937 105.625 139.55859375 C105.62595673 138.33450806 105.62691345 137.11042236 105.62789917 135.84924316 C105.62857591 133.28100533 105.62675717 130.71276574 105.62255859 128.14453125 C105.61716609 124.19918033 105.62253963 120.25394134 105.62890625 116.30859375 C105.6282461 113.8085935 105.62696625 111.30859332 105.625 108.80859375 C105.62803635 107.03373596 105.62803635 107.03373596 105.63113403 105.22302246 C105.62798187 104.13428833 105.62482971 103.0455542 105.62158203 101.92382812 C105.62078644 100.96359741 105.61999084 100.0033667 105.61917114 99.01403809 C105.64326895 96.68599884 105.64326895 96.68599884 104.4921875 94.71484375 C101.70027475 95.7975463 98.90864076 96.88095762 96.1171875 97.96484375 C95.29605469 98.28332275 94.47492188 98.60180176 93.62890625 98.92993164 C88.47851821 100.93099571 83.34597016 102.96822212 78.2421875 105.0859375 C76.4921875 105.71484375 76.4921875 105.71484375 74.4921875 105.71484375 C74.61335937 106.41456299 74.73453125 107.11428223 74.859375 107.83520508 C75.413055 111.06438399 75.95268021 114.29576799 76.4921875 117.52734375 C76.68296875 118.62755859 76.87375 119.72777344 77.0703125 120.86132812 C80.01276677 138.67368521 80.01276677 138.67368521 77.4921875 143.71484375 C76.8321875 143.71484375 76.1721875 143.71484375 75.4921875 143.71484375 C75.9253125 144.99488281 75.9253125 144.99488281 76.3671875 146.30078125 C82.94246158 168.44666964 81.2392201 192.39353062 70.2421875 212.8125 C68.16337765 216.26016902 66.00126925 219.63283404 63.7421875 222.96484375 C63.35321289 223.53887939 62.96423828 224.11291504 62.56347656 224.7043457 C61.59431414 226.08127582 60.54920265 227.40414496 59.4921875 228.71484375 C58.8321875 228.71484375 58.1721875 228.71484375 57.4921875 228.71484375 C57.2653125 229.27171875 57.0384375 229.82859375 56.8046875 230.40234375 C55.11668714 233.37643963 53.02542233 235.4349324 50.4921875 237.71484375 C49.8321875 237.71484375 49.1721875 237.71484375 48.4921875 237.71484375 C48.1621875 238.70484375 47.8321875 239.69484375 47.4921875 240.71484375 C45.9609375 241.90991211 45.9609375 241.90991211 43.9921875 243.0546875 C43.26902344 243.47814453 42.54585937 243.90160156 41.80078125 244.33789062 C40.65802734 244.98854492 40.65802734 244.98854492 39.4921875 245.65234375 C38.76128906 246.08224609 38.03039062 246.51214844 37.27734375 246.95507812 C17.23554539 258.56100529 -5.98691165 262.75282641 -28.7578125 257.08984375 C-31.02698712 256.3549406 -33.27881954 255.56385876 -35.5078125 254.71484375 C-36.7040625 254.26753906 -37.9003125 253.82023438 -39.1328125 253.359375 C-62.33807 244.0322618 -78.60764135 227.63890417 -88.5078125 204.71484375 C-90.07435679 200.4300279 -91.36520568 196.13024397 -92.5078125 191.71484375 C-92.73339844 190.89886719 -92.95898438 190.08289063 -93.19140625 189.2421875 C-96.26845886 176.53077706 -94.62054897 164.15813349 -91.66748047 151.63354492 C-91.47686035 150.77736572 -91.28624023 149.92118652 -91.08984375 149.0390625 C-90.90655518 148.27682373 -90.7232666 147.51458496 -90.53442383 146.72924805 C-90.27372423 144.60725818 -90.27372423 144.60725818 -91.95410156 143.16943359 C-92.72318848 142.44941162 -92.72318848 142.44941162 -93.5078125 141.71484375 C-93.96726033 135.75496412 -93.08798645 130.14198572 -92.0703125 124.27734375 C-91.02293621 118.0983248 -90.15071531 111.95037682 -89.5078125 105.71484375 C-95.99145013 102.73073858 -102.56361228 100.1229902 -109.2578125 97.65234375 C-111.37907729 96.86243834 -113.50016293 96.07205171 -115.62109375 95.28125 C-116.73564941 94.86633301 -117.85020508 94.45141602 -118.99853516 94.02392578 C-128.76487056 90.38074431 -138.5146682 86.6950262 -148.24755859 82.96337891 C-150.30618268 82.1750156 -152.36622531 81.39033759 -154.42822266 80.61083984 C-156.87785294 79.68194867 -159.31888975 78.73392004 -161.7578125 77.77734375 C-162.44866943 77.51937012 -163.13952637 77.26139648 -163.85131836 76.99560547 C-165.7109375 76.25 -165.7109375 76.25 -168.5078125 74.71484375 C-169.4296875 72.5234375 -169.4296875 72.5234375 -169.5078125 70.71484375 C-162.62886712 67.05686339 -155.57009278 64.06089669 -148.31640625 61.2421875 C-144.81597056 59.86308915 -141.38447277 58.35116773 -137.95239258 56.81079102 C-135.34348175 55.64117145 -132.72738377 54.48894953 -130.109375 53.33984375 C-101.03730926 40.65592402 -101.03730926 40.65592402 -72.20703125 27.4375 C-69.26658775 26.05614462 -66.30637557 24.72281087 -63.33984375 23.3984375 C-62.4367749 22.99520264 -61.53370605 22.59196777 -60.60327148 22.17651367 C-58.83449799 21.38871659 -57.06453851 20.60357505 -55.29321289 19.8215332 C-51.18709304 17.9925439 -47.35737794 16.04248797 -43.5078125 13.71484375 C-41.86145522 12.99788171 -40.21389359 12.28329684 -38.55566406 11.59423828 C-33.31432285 9.34348589 -28.2093473 6.77198862 -23.0703125 4.29882812 C-22.17054688 3.86763672 -21.27078125 3.43644531 -20.34375 2.9921875 C-19.13017822 2.40812134 -19.13017822 2.40812134 -17.89208984 1.81225586 C-11.5076658 -1.12630508 -6.89881253 -2.52751595 0 0 Z M-9.5078125 60.71484375 C-9.1778125 61.37484375 -8.8478125 62.03484375 -8.5078125 62.71484375 C-6.2888164 63.37041346 -6.2888164 63.37041346 -3.57421875 63.79296875 C-2.54119629 63.98117188 -1.50817383 64.169375 -0.44384766 64.36328125 C1.22605225 64.66105469 1.22605225 64.66105469 2.9296875 64.96484375 C17.10862443 67.64674494 30.46902857 71.38406982 43.42578125 77.83203125 C45.57747027 78.91127876 45.57747027 78.91127876 48.4921875 78.71484375 C48.4921875 78.05484375 48.4921875 77.39484375 48.4921875 76.71484375 C45.50708693 75.0204026 42.50451289 73.36038269 39.4921875 71.71484375 C38.32042969 71.06902344 38.32042969 71.06902344 37.125 70.41015625 C22.68701383 62.78879306 6.72067892 60.12471679 -9.5078125 60.71484375 Z M-42.5078125 86.71484375 C-42.5078125 87.04484375 -42.5078125 87.37484375 -42.5078125 87.71484375 C-41.59193359 87.70437012 -40.67605469 87.69389648 -39.73242188 87.68310547 C-36.25078691 87.64849938 -32.76934129 87.6236955 -29.28759766 87.60498047 C-27.79635692 87.59507932 -26.30513471 87.58155487 -24.81396484 87.56396484 C-11.2025126 87.40772265 2.34064717 88.03320827 15.4921875 91.90234375 C16.23364014 92.1152002 16.97509277 92.32805664 17.73901367 92.54736328 C29.4004955 96.0365084 40.20216343 101.3458837 50.8203125 107.234375 C53.02126 108.45390585 55.23154236 109.61143362 57.4921875 110.71484375 C57.37709089 109.29733812 57.24965092 107.88083206 57.1171875 106.46484375 C57.01277344 105.28148437 57.01277344 105.28148437 56.90625 104.07421875 C56.44269858 101.43285026 56.06180495 99.90428173 54.4921875 97.71484375 C52.27453913 96.38603836 50.21554677 95.31322715 47.8671875 94.27734375 C47.20783203 93.97803955 46.54847656 93.67873535 45.86914062 93.37036133 C38.61144152 90.17160398 31.10807543 87.8873246 23.4921875 85.71484375 C22.28433594 85.35261719 21.07648438 84.99039063 19.83203125 84.6171875 C1.07939528 79.55068585 -23.98516349 81.09905972 -42.5078125 86.71484375 Z M-55.1328125 131.15234375 C-55.78411133 131.34546143 -56.43541016 131.5385791 -57.10644531 131.73754883 C-62.19122437 133.35777679 -66.74865251 135.41096924 -70.046875 139.73046875 C-78.26632262 156.64242573 -80.54721546 175.58430399 -74.84106445 193.63671875 C-67.93569549 213.38630688 -54.16143154 227.54901476 -35.5078125 236.71484375 C-20.12052063 243.09582972 0.08169479 244.40644027 16.015625 238.83203125 C18.22598905 237.87395536 20.35295934 236.82134107 22.4921875 235.71484375 C23.14445312 235.42867188 23.79671875 235.1425 24.46875 234.84765625 C30.55878558 232.10592708 35.47130047 228.07002211 40.4921875 223.71484375 C41.19601562 223.10769531 41.89984375 222.50054687 42.625 221.875 C54.25390931 211.08975666 61.77682771 195.47692561 62.59887695 179.66235352 C62.96479133 167.35684269 61.97938488 156.73747487 57.2421875 145.27734375 C56.96689209 144.59019287 56.69159668 143.90304199 56.40795898 143.19506836 C54.02507169 137.77515473 51.10898369 135.2216164 45.53662109 132.90014648 C43.3103086 132.07740113 41.0732832 131.3499959 38.8046875 130.65234375 C37.97380615 130.39557861 37.1429248 130.13881348 36.28686523 129.87426758 C6.53214394 121.04736062 -25.55036544 122.22636983 -55.1328125 131.15234375 Z " fill="#D6BAB3" transform="translate(253.5078125,56.28515625)"/>
<path d="M0 0 C3.954778 7.08564392 4.07815917 14.74202088 2.4609375 22.62890625 C0.05004031 30.45769878 -3.89870277 35.91313098 -11 40 C-16.66982061 42.89276562 -21.69205381 43.39424664 -28 43 C-28.58984375 41.140625 -28.58984375 41.140625 -29 39 C-27.5625 36.75 -27.5625 36.75 -26 35 C-26.598125 35.515625 -27.19625 36.03125 -27.8125 36.5625 C-28.534375 37.036875 -29.25625 37.51125 -30 38 C-30.99 37.67 -31.98 37.34 -33 37 C-33.55768679 27.11655085 -33.16888584 18.91714741 -26.5625 11.125 C-25.716875 10.42375 -24.87125 9.7225 -24 9 C-23.2575 8.319375 -22.515 7.63875 -21.75 6.9375 C-15.05316087 2.21927243 -8.16693513 -0.18561216 0 0 Z " fill="#D3B8B2" transform="translate(462,157)"/>
<path d="M0 0 C8.4072882 -1.17702035 15.02379975 2.75793999 22 7 C27.37827776 11.14538353 30.78085271 15.78840026 32.6875 22.375 C33.43638402 28.66562574 33.3344743 34.04709054 31 40 C28.5759966 42.8901579 27.09359683 42.98889529 23.3125 43.4375 C16.47519399 43.16962047 9.79063393 39.79063393 5 35 C-1.3859433 26.65037914 -4.00458558 19.56998741 -3 9 C-2.22572593 5.89395258 -1.22588594 2.95526075 0 0 Z " fill="#D2B7B1" transform="translate(30,157)"/>
<path d="M0 0 C3.94723665 1.80049391 5.48861393 3.2329209 7.875 6.8125 C9.4436558 11.25702478 9.97281578 14.65659487 8.12109375 19.1171875 C6.02948202 22.88623042 4.38813388 24.76999474 0.625 27 C-4.49298215 28.41185714 -8.14955247 28.65309913 -13.1875 26.875 C-16.69973473 24.53351018 -18.18766463 22.83378636 -20 19 C-20.80908847 13.92255702 -20.59603416 10.17078139 -18.25 5.5625 C-12.76315692 -0.68640461 -8.10201951 -0.96530085 0 0 Z " fill="#CEB5AF" transform="translate(252,324)"/>
<path d="M0 0 C1.98 0.99 3.96 1.98 6 3 C6.33 2.34 6.66 1.68 7 1 C9.875 0.25 9.875 0.25 13 0 C13.99 0.66 14.98 1.32 16 2 C13.08489248 3.14982806 10.16765566 4.29415488 7.25 5.4375 C6.425 5.76298828 5.6 6.08847656 4.75 6.42382812 C3.95078125 6.73642578 3.1515625 7.04902344 2.328125 7.37109375 C1.5949707 7.65911865 0.86181641 7.94714355 0.10644531 8.24389648 C-1.9126509 8.96864625 -3.91084587 9.5189991 -6 10 C-6 11.65 -6 13.3 -6 15 C-7.32 15.33 -8.64 15.66 -10 16 C-10 15.34 -10 14.68 -10 14 C-10.99 13.67 -11.98 13.34 -13 13 C-11.87720538 12.01830524 -10.75168527 11.03972702 -9.625 10.0625 C-8.99851562 9.51722656 -8.37203125 8.97195312 -7.7265625 8.41015625 C-6 7 -6 7 -4 6 C-2.86649466 3.98330173 -2.86649466 3.98330173 -2 2 C-1.34 2 -0.68 2 0 2 C0 1.34 0 0.68 0 0 Z " fill="#CEB1AF" transform="translate(334,152)"/>
<path d="M0 0 C2.64 0.33 5.28 0.66 8 1 C5 3 5 3 1 4 C1 28.42 1 52.84 1 78 C1.99 78.33 2.98 78.66 4 79 C3.01 79.495 3.01 79.495 2 80 C1.01 79.67 0.02 79.34 -1 79 C-1.02313763 68.9949931 -1.04092237 58.98999254 -1.05181217 48.98496437 C-1.05703788 44.33957603 -1.06412989 39.69420595 -1.07543945 35.04882812 C-1.08627939 30.56847325 -1.0922792 26.08813598 -1.09487724 21.60776901 C-1.09672949 19.89569191 -1.10034629 18.18361581 -1.10573006 16.47154617 C-1.11295514 14.07947941 -1.11399032 11.68748602 -1.11352539 9.29541016 C-1.1189183 8.22618568 -1.1189183 8.22618568 -1.12442017 7.13536072 C-1.11405216 2.22810432 -1.11405216 2.22810432 0 0 Z " fill="#A28E8D" transform="translate(372,141)"/>
<path d="M0 0 C1.36995117 0.07831055 1.36995117 0.07831055 2.76757812 0.15820312 C4.99137081 0.28627495 7.21451936 0.42113959 9.4375 0.5625 C9.4375 0.8925 9.4375 1.2225 9.4375 1.5625 C-1.9475 2.5525 -1.9475 2.5525 -13.5625 3.5625 C-12.2425 4.2225 -10.9225 4.8825 -9.5625 5.5625 C-17.4825 6.0575 -17.4825 6.0575 -25.5625 6.5625 C-25.8925 5.2425 -26.2225 3.9225 -26.5625 2.5625 C-17.65178926 -0.28134385 -9.29615395 -0.59337153 0 0 Z " fill="#E3CEC5" transform="translate(247.5625,114.4375)"/>
<path d="M0 0 C-6.55092592 6.55092592 -19.80327796 6.23097219 -28.41992188 6.27685547 C-33.61505795 6.23788486 -38.80699472 6.15455373 -44 6 C-44 5.67 -44 5.34 -44 5 C-35.09 4.67 -26.18 4.34 -17 4 C-16.67 3.01 -16.34 2.02 -16 1 C-10.63904667 -0.12862175 -5.44693314 -0.09688221 0 0 Z " fill="#A48989" transform="translate(277,309)"/>
<path d="M0 0 C0.33 0 0.66 0 1 0 C1.19601608 1.74906659 1.38147403 3.49931846 1.5625 5.25 C1.66691406 6.22453125 1.77132812 7.1990625 1.87890625 8.203125 C1.99107223 10.79379724 1.7198102 12.54417697 1 15 C0.96213099 16.66623639 0.95372155 18.33397597 1 20 C0.34 20 -0.32 20 -1 20 C-0.73343428 22.93443402 -0.73343428 22.93443402 0 26 C0.99 26.66 1.98 27.32 3 28 C2.67 28.99 2.34 29.98 2 31 C-1.875 29.25 -1.875 29.25 -3 27 C-3.27538698 20.83133175 -2.53531401 15.07197678 -1.5 9 C-1.35691406 8.12988281 -1.21382812 7.25976562 -1.06640625 6.36328125 C-0.71661973 4.24124305 -0.3591135 2.12047972 0 0 Z " fill="#BC9E9F" transform="translate(163,171)"/>
<path d="M0 0 C0 0.66 0 1.32 0 2 C-0.66 2 -1.32 2 -2 2 C-1.22520264 4.99152582 -1.22520264 4.99152582 0 8 C0.99 8.33 1.98 8.66 3 9 C3 9.99 3 10.98 3 12 C1.56068883 11.54738642 0.12361001 11.08767021 -1.3125 10.625 C-2.51326172 10.24214844 -2.51326172 10.24214844 -3.73828125 9.8515625 C-6 9 -6 9 -9 7 C-8.875 5.1875 -8.875 5.1875 -8 3 C-2.96428571 0 -2.96428571 0 0 0 Z " fill="#C2A29D" transform="translate(93,123)"/>
<path d="M0 0 C1.32 0.66 2.64 1.32 4 2 C3.13375 2.7425 3.13375 2.7425 2.25 3.5 C-2.98300668 9.31445187 -4.99158591 16.57495396 -7 24 C-9.29257254 19.99681565 -9.00301452 17.51356535 -8 13 C-7.34 12.34 -6.68 11.68 -6 11 C-5.67 10.34 -5.34 9.68 -5 9 C-4.34 9 -3.68 9 -3 9 C-3 8.34 -3 7.68 -3 7 C-3.66 7 -4.32 7 -5 7 C-4.67 5.68 -4.34 4.36 -4 3 C-3.01 3 -2.02 3 -1 3 C-0.67 2.01 -0.34 1.02 0 0 Z " fill="#AD9291" transform="translate(185,190)"/>
<path d="M0 0 C7.2297593 -0.61269147 7.2297593 -0.61269147 10.75 2.1875 C11.86375 3.5796875 11.86375 3.5796875 13 5 C13.763125 5.928125 14.52625 6.85625 15.3125 7.8125 C15.869375 8.534375 16.42625 9.25625 17 10 C16.67 10.66 16.34 11.32 16 12 C13.525 11.505 13.525 11.505 11 11 C11 10.01 11 9.02 11 8 C10.01 7.67 9.02 7.34 8 7 C6 4 6 4 6 1 C5.4225 1.309375 4.845 1.61875 4.25 1.9375 C2.15705816 2.92583364 0.25464725 3.5168613 -2 4 C-1.34 2.68 -0.68 1.36 0 0 Z " fill="#B49B9B" transform="translate(390,160)"/>
<path d="M0 0 C2 3 2 3 2 7 C2.66 7.33 3.32 7.66 4 8 C3.34 8 2.68 8 2 8 C2 13.61 2 19.22 2 25 C1.34 24.67 0.68 24.34 0 24 C0 19.05 0 14.1 0 9 C-1.4025 9.04125 -2.805 9.0825 -4.25 9.125 C-7.77920727 9.22880021 -9.93753253 8.78409802 -13 7 C-10.69 6.34 -8.38 5.68 -6 5 C-5.34 5.66 -4.68 6.32 -4 7 C-1.93125966 7.6425235 -1.93125966 7.6425235 0 8 C0 5.36 0 2.72 0 0 Z " fill="#745F5D" transform="translate(52,276)"/>
<path d="M0 0 C1.09570312 0.00902344 2.19140625 0.01804688 3.3203125 0.02734375 C4.16335937 0.03894531 5.00640625 0.05054688 5.875 0.0625 C5.875 0.7225 5.875 1.3825 5.875 2.0625 C11.155 2.0625 16.435 2.0625 21.875 2.0625 C21.875 2.3925 21.875 2.7225 21.875 3.0625 C6.53 3.5575 6.53 3.5575 -9.125 4.0625 C-8.795 3.0725 -8.465 2.0825 -8.125 1.0625 C-5.36047967 -0.31976016 -3.0788637 -0.03275387 0 0 Z " fill="#947F7C" transform="translate(236.125,135.9375)"/>
<path d="M0 0 C-2.96680942 2.96680942 -6.47016225 3.53759451 -10.4375 4.6875 C-11.21416016 4.92533203 -11.99082031 5.16316406 -12.79101562 5.40820312 C-13.53931641 5.62798828 -14.28761719 5.84777344 -15.05859375 6.07421875 C-15.74236084 6.27619873 -16.42612793 6.47817871 -17.13061523 6.6862793 C-19 7 -19 7 -22 6 C-20.8125 4.5 -20.8125 4.5 -19 3 C-16.3125 2.8125 -16.3125 2.8125 -14 3 C-13.67 2.01 -13.34 1.02 -13 0 C-4.57142857 -1.28571429 -4.57142857 -1.28571429 0 0 Z " fill="#BBA0A2" transform="translate(313,448)"/>
<path d="M0 0 C0.75 1.625 0.75 1.625 1 4 C-1.38258776 8.30698556 -4.33791432 11.72339702 -8 15 C-8.66 15 -9.32 15 -10 15 C-9.2179176 11.08958801 -7.72567366 7.58409144 -6 4 C-3 2 -3 2 0 2 C0 1.34 0 0.68 0 0 Z " fill="#B39C9C" transform="translate(488,305)"/>
<path d="M0 0 C0.33 0 0.66 0 1 0 C1 8.91 1 17.82 1 27 C-0.65 27.66 -2.3 28.32 -4 29 C-4.99 28.01 -5.98 27.02 -7 26 C-6.34 25.67 -5.68 25.34 -5 25 C-4.67 24.34 -4.34 23.68 -4 23 C-2.68 23 -1.36 23 0 23 C0 15.41 0 7.82 0 0 Z " fill="#79575C" transform="translate(380,241)"/>
<path d="M0 0 C0.66 0 1.32 0 2 0 C1.52039967 6.35470441 1.52039967 6.35470441 -0.5625 8.9375 C-4.23889481 10.54003107 -6.99175325 10.31811482 -11 10 C-11.99 9.34 -12.98 8.68 -14 8 C-13.195625 7.87625 -12.39125 7.7525 -11.5625 7.625 C-10.716875 7.41875 -9.87125 7.2125 -9 7 C-8.67 6.34 -8.34 5.68 -8 5 C-6.68 5.66 -5.36 6.32 -4 7 C-2.10786631 4.61426621 -0.97608217 2.92824652 0 0 Z " fill="#B49A9C" transform="translate(60,190)"/>
<path d="M0 0 C2.6875 -0.3125 2.6875 -0.3125 6 0 C8.57285724 2.172635 10.48996919 3.97993838 12 7 C12.99 7.33 13.98 7.66 15 8 C15.33 8.99 15.66 9.98 16 11 C10.34115395 9.54901383 5.48351309 6.70951715 1 3 C0.67 2.01 0.34 1.02 0 0 Z " fill="#C0ABA7" transform="translate(194,296)"/>
<path d="M0 0 C1.7634375 -0.00773437 1.7634375 -0.00773437 3.5625 -0.015625 C7.01937245 0.25149696 9.77517473 1.01119517 13 2.25 C11.125 3.3125 11.125 3.3125 9 4.25 C8.34 3.92 7.68 3.59 7 3.25 C4.28737884 3.0177354 1.59226874 2.83063765 -1.125 2.6875 C-1.87910156 2.64431641 -2.63320313 2.60113281 -3.41015625 2.55664062 C-5.27321888 2.4505168 -7.13658524 2.34974999 -9 2.25 C-9 2.91 -9 3.57 -9 4.25 C-11.31 4.25 -13.62 4.25 -16 4.25 C-10.79598039 0.7806536 -6.20045411 -0.02719497 0 0 Z " fill="#8A6F73" transform="translate(460,292.75)"/>
<path d="M0 0 C1.32 0 2.64 0 4 0 C3.67 4.29 3.34 8.58 3 13 C2.67 13 2.34 13 2 13 C1.67 10.69 1.34 8.38 1 6 C0.67 11.28 0.34 16.56 0 22 C-0.66 22 -1.32 22 -2 22 C-2.25515919 14.47280398 -1.28297723 7.41148455 0 0 Z " fill="#E4CCC4" transform="translate(52,262)"/>
<path d="M0 0 C-3.63 0.99 -7.26 1.98 -11 3 C-10.34 3.66 -9.68 4.32 -9 5 C-12.375 5.125 -12.375 5.125 -16 5 C-16.66 4.34 -17.32 3.68 -18 3 C-20.65537372 2.43479997 -23.29144713 2.26211802 -26 2 C-26 1.67 -26 1.34 -26 1 C-22.41770965 0.63470654 -18.83408482 0.28470822 -15.25 -0.0625 C-13.72632813 -0.2181543 -13.72632813 -0.2181543 -12.171875 -0.37695312 C-10.70234375 -0.51713867 -10.70234375 -0.51713867 -9.203125 -0.66015625 C-8.30239258 -0.74918213 -7.40166016 -0.83820801 -6.47363281 -0.92993164 C-4 -1 -4 -1 0 0 Z " fill="#957D7C" transform="translate(267,297)"/>
<path d="M0 0 C3.42956039 0.41994617 4.7577976 0.81421956 7.0625 3.375 C8.04263473 6.66545231 8.39552894 8.53132669 7.125 11.75 C6.774375 12.28625 6.42375 12.8225 6.0625 13.375 C5.7325 11.725 5.4025 10.075 5.0625 8.375 C4.4025 8.375 3.7425 8.375 3.0625 8.375 C3.3925 7.385 3.7225 6.395 4.0625 5.375 C2.30113645 3.19168311 2.30113645 3.19168311 0.1171875 3.1796875 C-2.91015625 3.27734375 -2.91015625 3.27734375 -5.9375 3.375 C-4.05554105 0.86572141 -3.17650531 0.40551132 0 0 Z " fill="#A68E90" transform="translate(97.9375,159.625)"/>
<path d="M0 0 C1.258125 -0.04125 2.51625 -0.0825 3.8125 -0.125 C4.52019531 -0.14820313 5.22789062 -0.17140625 5.95703125 -0.1953125 C8 0 8 0 11 2 C5.555 3.485 5.555 3.485 0 5 C0 5.66 0 6.32 0 7 C-0.99 7 -1.98 7 -3 7 C-3 7.66 -3 8.32 -3 9 C-4.32 8.34 -5.64 7.68 -7 7 C-6.34 6.34 -5.68 5.68 -5 5 C-4.34 4.01 -3.68 3.02 -3 2 C-2.01 2 -1.02 2 0 2 C0 1.34 0 0.68 0 0 Z " fill="#AB8E8C" transform="translate(211,139)"/>
<path d="M0 0 C5.34844008 0.53484401 9.35796103 2.46690767 14 5 C13.34 6.32 12.68 7.64 12 9 C6.25 8.25 6.25 8.25 4 6 C4.33 5.34 4.66 4.68 5 4 C4.175 3.525625 3.35 3.05125 2.5 2.5625 C1.675 2.046875 0.85 1.53125 0 1 C0 0.67 0 0.34 0 0 Z " fill="#B59C9D" transform="translate(38,294)"/>
<path d="M0 0 C1.23556641 0.01740234 1.23556641 0.01740234 2.49609375 0.03515625 C3.32238281 0.04417969 4.14867187 0.05320313 5 0.0625 C5.63808594 0.07410156 6.27617187 0.08570313 6.93359375 0.09765625 C6.93359375 0.42765625 6.93359375 0.75765625 6.93359375 1.09765625 C4.29359375 1.42765625 1.65359375 1.75765625 -1.06640625 2.09765625 C-1.72640625 5.39765625 -2.38640625 8.69765625 -3.06640625 12.09765625 C-3.72640625 12.09765625 -4.38640625 12.09765625 -5.06640625 12.09765625 C-5.72640625 12.75765625 -6.38640625 13.41765625 -7.06640625 14.09765625 C-5.89530029 0.27860587 -5.89530029 0.27860587 0 0 Z " fill="#B09794" transform="translate(7.06640625,202.90234375)"/>
<path d="M0 0 C0 0.33 0 0.66 0 1 C-8.71782637 1.16311941 -17.31238511 0.65655389 -26 0 C-25 -2 -25 -2 -23.36328125 -2.64453125 C-15.76205432 -3.78785629 -7.21476235 -2.57670084 0 0 Z " fill="#E3CCC7" transform="translate(269,138)"/>
<path d="M0 0 C0.99 0 1.98 0 3 0 C1.5810861 3.89491864 -0.25770541 7.20529251 -2.5 10.6875 C-3.1084375 11.64011719 -3.716875 12.59273437 -4.34375 13.57421875 C-6 16 -6 16 -8 18 C-8.8590884 10.91252068 -3.73614742 5.60422113 0 0 Z " fill="#B49D94" transform="translate(98,176)"/>
<path d="M0 0 C1.125 4.75 1.125 4.75 0 7 C-0.99 6.67 -1.98 6.34 -3 6 C-3 5.34 -3 4.68 -3 4 C-5.97 3.505 -5.97 3.505 -9 3 C-8.67 3.99 -8.34 4.98 -8 6 C-9.32 5.34 -10.64 4.68 -12 4 C-10 1 -10 1 -7.125 0.3125 C-4 0 -4 0 0 0 Z " fill="#DEC6BB" transform="translate(60,312)"/>
<path d="M0 0 C1.670625 0.061875 1.670625 0.061875 3.375 0.125 C1.1110039 2.59217524 -1.21560244 4.22634139 -4.125 5.875 C-5.28515625 6.54789062 -5.28515625 6.54789062 -6.46875 7.234375 C-8.625 8.125 -8.625 8.125 -11.625 7.125 C-10.965 7.125 -10.305 7.125 -9.625 7.125 C-9.625 5.805 -9.625 4.485 -9.625 3.125 C-9.00625 3.00125 -8.3875 2.8775 -7.75 2.75 C-4.09956122 1.67634154 -4.25869205 0.14685145 0 0 Z " fill="#B3999C" transform="translate(468.625,272.875)"/>
<path d="M0 0 C0.33 0 0.66 0 1 0 C2.15672242 7.95246661 3.12411337 15.38497366 0 23 C-0.33 23 -0.66 23 -1 23 C-1.0272367 20.47909222 -1.04695207 17.95848543 -1.0625 15.4375 C-1.07087891 14.73302734 -1.07925781 14.02855469 -1.08789062 13.30273438 C-1.10882603 8.75975202 -0.74800682 4.48215108 0 0 Z " fill="#A08C86" transform="translate(160,215)"/>
<path d="M0 0 C0.66 0.33 1.32 0.66 2 1 C2.05454409 3.35448675 2.0939279 5.70767875 2.125 8.0625 C2.14820313 9.37347656 2.17140625 10.68445313 2.1953125 12.03515625 C1.99417522 16.11824299 1.27165462 19.14999053 0 23 C-0.33 23 -0.66 23 -1 23 C-0.67 15.41 -0.34 7.82 0 0 Z " fill="#DBC2BD" transform="translate(317,223)"/>
<path d="M0 0 C1.02613403 0.23771118 1.02613403 0.23771118 2.07299805 0.48022461 C5.35452412 1.0629562 8.50059921 1.21367487 11.83203125 1.31640625 C13.12431641 1.35830078 14.41660156 1.40019531 15.74804688 1.44335938 C17.10286192 1.48316352 18.45767967 1.52287591 19.8125 1.5625 C21.18686105 1.60573723 22.56121024 1.64935312 23.93554688 1.69335938 C27.29026669 1.7992979 30.6450586 1.90137189 34 2 C34 2.33 34 2.66 34 3 C22.12 3 10.24 3 -2 3 C-1.34 2.01 -0.68 1.02 0 0 Z " fill="#E5CDCE" transform="translate(227,456)"/>
<path d="M0 0 C0.66 0.99 1.32 1.98 2 3 C-0.31 3.33 -2.62 3.66 -5 4 C-4.67 3.34 -4.34 2.68 -4 2 C-4.66 1.67 -5.32 1.34 -6 1 C-6 1.66 -6 2.32 -6 3 C-9.85756507 5.15305957 -12.55129785 6.39253254 -17 6 C-11.49049587 1.27756789 -7.38283565 -0.69649393 0 0 Z " fill="#A28889" transform="translate(175,305)"/>
<path d="M0 0 C7.29031024 -0.2494783 13.90673679 0.27669093 21 2 C21 2.66 21 3.32 21 4 C18.62412376 3.88513575 16.24984829 3.75841844 13.875 3.625 C12.87726562 3.57859375 12.87726562 3.57859375 11.859375 3.53125 C7.60178738 3.28080367 3.97914217 2.52471803 0 1 C0 0.67 0 0.34 0 0 Z " fill="#A69393" transform="translate(38,374)"/>
<path d="M0 0 C0 0.33 0 0.66 0 1 C-0.88042969 1.12117188 -1.76085937 1.24234375 -2.66796875 1.3671875 C-3.82941406 1.53476562 -4.99085937 1.70234375 -6.1875 1.875 C-7.33605469 2.03742188 -8.48460938 2.19984375 -9.66796875 2.3671875 C-12.69915107 2.94286339 -15.15901507 3.84824935 -18 5 C-20.3320802 5.07646165 -22.66845878 5.09143299 -25 5 C-17.10457695 -0.26361537 -9.28253876 -0.38737024 0 0 Z " fill="#81696C" transform="translate(38,293)"/>
<path d="M0 0 C0.33 0 0.66 0 1 0 C0.51679152 6.2054142 -0.33318124 11.99945246 -2 18 C-2.99 17.67 -3.98 17.34 -5 17 C-4.01 12.38 -3.02 7.76 -2 3 C-1.34 3 -0.68 3 0 3 C0 2.01 0 1.02 0 0 Z " fill="#AB9392" transform="translate(74,231)"/>
<path d="M0 0 C2.64 0.33 5.28 0.66 8 1 C5 3 5 3 1 4 C1 11.26 1 18.52 1 26 C0.67 26 0.34 26 0 26 C-0.19625099 22.04204914 -0.38051982 18.08363065 -0.5625 14.125 C-0.61857422 12.99707031 -0.67464844 11.86914062 -0.73242188 10.70703125 C-0.80493164 9.09248047 -0.80493164 9.09248047 -0.87890625 7.4453125 C-0.9260376 6.45031738 -0.97316895 5.45532227 -1.02172852 4.43017578 C-1 2 -1 2 0 0 Z " fill="#AA9393" transform="translate(372,141)"/>
<path d="M0 0 C3.81041189 1.20328796 7.57086792 2.53640104 11.3125 3.9375 C12.17488281 4.25589844 13.03726562 4.57429688 13.92578125 4.90234375 C16 6 16 6 17 9 C15.55989519 8.74337755 14.1229313 8.46909179 12.6875 8.1875 C11.88699219 8.03667969 11.08648437 7.88585937 10.26171875 7.73046875 C7.73578574 6.91466655 6.82043796 5.86123209 5 4 C4.01 4 3.02 4 2 4 C1.34 2.68 0.68 1.36 0 0 Z " fill="#B29DA0" transform="translate(369,110)"/>
<path d="M0 0 C-6.03142373 4.66258997 -10.33716171 6.75673529 -18 7 C-14.83918877 4.40416469 -11.64226013 2.82354846 -7.875 1.25 C-6.82054687 0.80140625 -5.76609375 0.3528125 -4.6796875 -0.109375 C-2 -1 -2 -1 0 0 Z " fill="#AD9191" transform="translate(159,96)"/>
<path d="M0 0 C0.99 0.33 1.98 0.66 3 1 C3 2.65 3 4.3 3 6 C3.61875 6.12375 4.2375 6.2475 4.875 6.375 C7 7 7 7 9 9 C8.01 9.33 7.02 9.66 6 10 C5.26676204 12.01508358 5.26676204 12.01508358 5 14 C4.15973604 12.23244474 3.32801278 10.46082737 2.5 8.6875 C2.0359375 7.70136719 1.571875 6.71523438 1.09375 5.69921875 C0 3 0 3 0 0 Z " fill="#AE9995" transform="translate(165,258)"/>
<path d="M0 0 C2.12723078 3.54538464 2.48318899 6.93934209 3 11 C3.33 11.99 3.66 12.98 4 14 C3.01 15.485 3.01 15.485 2 17 C1.32243118 15.44219668 0.65840543 13.87849904 0 12.3125 C-0.37125 11.44238281 -0.7425 10.57226562 -1.125 9.67578125 C-2.03348696 6.89759569 -2.31611373 4.89935564 -2 2 C-1.34 1.34 -0.68 0.68 0 0 Z " fill="#B29A94" transform="translate(2,236)"/>
<path d="M0 0 C2.82378673 3.29441785 3.99994594 6.49235858 5.25 10.625 C5.60578125 11.77226562 5.9615625 12.91953125 6.328125 14.1015625 C7 17 7 17 6 19 C3.35163339 15.87011219 1.9951732 12.9806928 1 9 C1.375 6.625 1.375 6.625 2 5 C1.01 4.67 0.02 4.34 -1 4 C-0.67 2.68 -0.34 1.36 0 0 Z " fill="#A79291" transform="translate(425,206)"/>
<path d="M0 0 C5.59282842 1.36410449 8.91193811 4.15383526 13 8 C10 9 10 9 8 9 C7.67 8.34 7.34 7.68 7 7 C6.38125 6.731875 5.7625 6.46375 5.125 6.1875 C2.35873868 4.64164808 1.45344564 2.76154672 0 0 Z " fill="#AA9695" transform="translate(30,209)"/>
<path d="M0 0 C1.80030122 2.70045182 2.93377066 5.06677881 4.125 8.0625 C4.47820312 8.94035156 4.83140625 9.81820313 5.1953125 10.72265625 C6 13 6 13 6 15 C5.34 15 4.68 15 4 15 C3.67 15.66 3.34 16.32 3 17 C1.75453595 14.50907189 2.2232422 13.58919267 3 11 C2.01 10.67 1.02 10.34 0 10 C-0.95024979 6.30458414 -0.95024979 3.69541586 0 0 Z " fill="#A38B89" transform="translate(178,247)"/>
<path d="M0 0 C3.24983 -0.08728882 6.4993575 -0.14048658 9.75 -0.1875 C11.13058594 -0.22520508 11.13058594 -0.22520508 12.5390625 -0.26367188 C13.42851562 -0.27333984 14.31796875 -0.28300781 15.234375 -0.29296875 C16.05131836 -0.3086792 16.86826172 -0.32438965 17.70996094 -0.34057617 C20.51240627 0.07620541 21.88847021 1.16195148 24 3 C23.27296875 2.93941406 22.5459375 2.87882813 21.796875 2.81640625 C20.28867187 2.69072266 20.28867187 2.69072266 18.75 2.5625 C15.34375 2.27864583 11.9375 1.99479167 8.53125 1.7109375 C6.90703125 1.57558594 6.90703125 1.57558594 5.25 1.4375 C2.625 1.21875 2.625 1.21875 0 1 C0 0.67 0 0.34 0 0 Z " fill="#A68C91" transform="translate(251,180)"/>
<path d="M0 0 C2.23407688 1.23462144 3.71642566 2.3920455 5.375 4.3125 C4.385 4.6425 3.395 4.9725 2.375 5.3125 C1.715 4.6525 1.055 3.9925 0.375 3.3125 C-1.605 4.3025 -1.605 4.3025 -3.625 5.3125 C-6.625 3.3125 -6.625 3.3125 -7.625 1.3125 C-4.68610794 -0.1989302 -3.25568692 -0.85267991 0 0 Z " fill="#B0A09C" transform="translate(304.625,162.6875)"/>
<path d="M0 0 C-0.99 0.99 -1.98 1.98 -3 3 C-2.01 3.99 -1.02 4.98 0 6 C-3.55780196 5.39009109 -6.6828589 4.4216319 -10 3 C-9.34 2.67 -8.68 2.34 -8 2 C-7.67 1.01 -7.34 0.02 -7 -1 C-3.62895826 -2.46078476 -3.21850792 -2.14567195 0 0 Z " fill="#C2A09D" transform="translate(144,147)"/>
<path d="M0 0 C5.19644079 1.59890486 10.06612142 3.74138003 15 6 C13.140625 7.0546875 13.140625 7.0546875 11 8 C8.75 7.125 8.75 7.125 7 6 C7 5.34 7 4.68 7 4 C6.01 4.33 5.02 4.66 4 5 C1.8125 4.0625 1.8125 4.0625 0 3 C0 2.01 0 1.02 0 0 Z " fill="#A78C8D" transform="translate(327,92)"/>
<path d="M0 0 C0.33 0 0.66 0 1 0 C1.33 4.29 1.66 8.58 2 13 C0.02 13.33 -1.96 13.66 -4 14 C-3.34 13.01 -2.68 12.02 -2 11 C-1.58073551 8.52375646 -1.58073551 8.52375646 -1.4375 5.875 C-1.09828393 1.09828393 -1.09828393 1.09828393 0 0 Z " fill="#90716F" transform="translate(360,208)"/>
<path d="M0 0 C1.32 0.33 2.64 0.66 4 1 C3.34 2.65 2.68 4.3 2 6 C-0.64 6 -3.28 6 -6 6 C-6 5.01 -6 4.02 -6 3 C-5.01 3 -4.02 3 -3 3 C-2.67 3.33 -2.34 3.66 -2 4 C-1.34 2.68 -0.68 1.36 0 0 Z " fill="#D6BCBF" transform="translate(439,193)"/>
<path d="M0 0 C2.88575819 0.39803561 3.82189513 0.79009069 5.75 3.0625 C6.1625 3.701875 6.575 4.34125 7 5 C7.99 3.68 8.98 2.36 10 1 C9.25 6.75 9.25 6.75 7 9 C4.03595495 6.19195732 1.55500981 3.81684226 0 0 Z " fill="#AB9392" transform="translate(94,372)"/>
<path d="M0 0 C0.66 0.33 1.32 0.66 2 1 C0.63016497 4.16115776 0.0109362 4.9927092 -3 7 C-4.98799818 7.70164642 -6.98698517 8.37372872 -9 9 C-6.31941902 5.42589203 -3.57410797 2.68058098 0 0 Z M-5 7 C-4.34 7.33 -3.68 7.66 -3 8 C-3.99 8.66 -4.98 9.32 -6 10 C-5.67 9.01 -5.34 8.02 -5 7 Z " fill="#A78D8C" transform="translate(139,324)"/>
<path d="M0 0 C0.66 0.66 1.32 1.32 2 2 C-0.6234008 4.91488977 -3.71816394 6.88503898 -7 9 C-7.66 8.67 -8.32 8.34 -9 8 C-9 7.01 -9 6.02 -9 5 C-8.443125 4.731875 -7.88625 4.46375 -7.3125 4.1875 C-4.80287477 2.89877353 -2.40665764 1.47073522 0 0 Z " fill="#B5999E" transform="translate(476,319)"/>
<path d="M0 0 C0.66 0.66 1.32 1.32 2 2 C4.89223503 2.46396693 4.89223503 2.46396693 8.125 2.625 C9.76855469 2.73714844 9.76855469 2.73714844 11.4453125 2.8515625 C12.28835937 2.90054688 13.13140625 2.94953125 14 3 C14 3.33 14 3.66 14 4 C10.32612505 4.85298376 6.9552607 5.10789471 3.1875 5.0625 C1.72376953 5.04896484 1.72376953 5.04896484 0.23046875 5.03515625 C-0.87361328 5.01775391 -0.87361328 5.01775391 -2 5 C-1.34 3.35 -0.68 1.7 0 0 Z " fill="#B79A9D" transform="translate(209,179)"/>
<path d="M0 0 C-2.64738916 1.4606285 -3.89448334 2 -7 2 C-7.33 2.99 -7.66 3.98 -8 5 C-10.64 5 -13.28 5 -16 5 C-12.15912446 0.02945518 -5.86103584 -0.28590419 0 0 Z " fill="#937878" transform="translate(462,157)"/>
<path d="M0 0 C5.28 0.99 10.56 1.98 16 3 C16 3.33 16 3.66 16 4 C12.97265625 4.24414062 12.97265625 4.24414062 9.9453125 4.48828125 C7.60480784 4.87393036 7.60480784 4.87393036 6 8 C5.01 7.67 4.02 7.34 3 7 C3.33 5.68 3.66 4.36 4 3 C2.68 2.67 1.36 2.34 0 2 C0 1.34 0 0.68 0 0 Z " fill="#998584" transform="translate(222,294)"/>
<path d="M0 0 C0.33 1.32 0.66 2.64 1 4 C-2 4 -2 4 -4 3.375 C-6.3084494 2.70113419 -6.3084494 2.70113419 -9 5 C-11.1875 4.625 -11.1875 4.625 -13 4 C-11.59248779 3.13083113 -10.1735479 2.28014851 -8.75 1.4375 C-7.96109375 0.96183594 -7.1721875 0.48617187 -6.359375 -0.00390625 C-3.69155375 -1.13022151 -2.65498232 -1.0169313 0 0 Z " fill="#DCC1BC" transform="translate(191,83)"/>
<path d="M0 0 C4.05281712 1.22527029 7.44360764 2.69880494 11 5 C8.49749232 6.25125384 7.59701335 5.83774624 5 5 C4.67 4.67 4.34 4.34 4 4 C4 4.99 4 5.98 4 7 C2.68 7 1.36 7 0 7 C-0.33 5.68 -0.66 4.36 -1 3 C-0.34 2.67 0.32 2.34 1 2 C0.67 1.34 0.34 0.68 0 0 Z " fill="#AA8F8F" transform="translate(265,63)"/>
<path d="M0 0 C3.22269618 3.79817765 5.74520378 7.57391854 8 12 C7.67 12.66 7.34 13.32 7 14 C3.64888166 11.76592111 2.18446044 10.73784176 1.1875 6.75 C1.125625 5.8425 1.06375 4.935 1 4 C0.01 4.495 0.01 4.495 -1 5 C-0.67 3.35 -0.34 1.7 0 0 Z " fill="#A08E8D" transform="translate(84,351)"/>
<path d="M0 0 C0.33 0 0.66 0 1 0 C1.19456705 1.95764383 1.38044247 3.91615321 1.5625 5.875 C1.66691406 6.96554687 1.77132813 8.05609375 1.87890625 9.1796875 C2 12 2 12 1 14 C-1.475 13.01 -1.475 13.01 -4 12 C-3.67 10.35 -3.34 8.7 -3 7 C-2.34 7.33 -1.68 7.66 -1 8 C-0.67 5.36 -0.34 2.72 0 0 Z " fill="#B8A19F" transform="translate(438,288)"/>
<path d="M0 0 C1.32 0.66 2.64 1.32 4 2 C3.401875 2.5775 2.80375 3.155 2.1875 3.75 C0.2517316 5.74107607 -1.38909283 7.74472997 -3 10 C-3 9.01 -3 8.02 -3 7 C-3.66 7 -4.32 7 -5 7 C-4.67 5.68 -4.34 4.36 -4 3 C-3.01 3 -2.02 3 -1 3 C-0.67 2.01 -0.34 1.02 0 0 Z " fill="#BEA398" transform="translate(185,190)"/>
<path d="M0 0 C0 0.33 0 0.66 0 1 C-5.66642551 2.22517308 -11.23708518 2.09228867 -17 2 C-17.33 1.34 -17.66 0.68 -18 0 C-11.76817361 -1.03863773 -6.25307239 -0.83288874 0 0 Z " fill="#B89C9F" transform="translate(278,457)"/>
<path d="M0 0 C-0.47205119 4.24846075 -2.88877522 6.26819288 -6 9 C-6.66 9 -7.32 9 -8 9 C-7.08105617 4.55843817 -5.24377079 0 0 0 Z " fill="#B39B97" transform="translate(391,399)"/>
<path d="M0 0 C0.33 0 0.66 0 1 0 C1.98248524 4.0527516 2.08159574 7.83861737 2 12 C1.67 12 1.34 12 1 12 C0.67 14.31 0.34 16.62 0 19 C-0.33 19 -0.66 19 -1 19 C-1.0272616 16.95840905 -1.04651345 14.91671037 -1.0625 12.875 C-1.07410156 11.73804688 -1.08570313 10.60109375 -1.09765625 9.4296875 C-1.005327 6.1870844 -0.61389906 3.18067388 0 0 Z " fill="#B9A1A2" transform="translate(424,279)"/>
<path d="M0 0 C1.32 0.66 2.64 1.32 4 2 C3.34 2 2.68 2 2 2 C2 3.65 2 5.3 2 7 C0.68 7.33 -0.64 7.66 -2 8 C-2 7.34 -2 6.68 -2 6 C-2.99 5.67 -3.98 5.34 -5 5 C-3.35 3.35 -1.7 1.7 0 0 Z " fill="#B89F9C" transform="translate(326,160)"/>
<path d="M0 0 C2.93375101 0.67057166 4.61941083 1.4959765 6.4453125 3.9140625 C7.6840771 5.91732182 8.87054327 7.93333449 10 10 C7.00779732 8.63629701 4.70973471 7.05091917 2.25 4.875 C1.63640625 4.33617187 1.0228125 3.79734375 0.390625 3.2421875 C-0.06828125 2.83226562 -0.5271875 2.42234375 -1 2 C-0.67 1.34 -0.34 0.68 0 0 Z " fill="#B39E9C" transform="translate(103,401)"/>
<path d="M0 0 C0.66 0.33 1.32 0.66 2 1 C1.360625 2.0725 0.72125 3.145 0.0625 4.25 C-1.40601273 6.80822182 -2.52854542 9.05340886 -3 12 C-5 9 -5 9 -4.875 6.5625 C-3.83687696 3.52228253 -2.39854906 2.08905886 0 0 Z " fill="#9F8586" transform="translate(20,348)"/>
<path d="M0 0 C2.96404505 2.80804268 5.44499019 5.18315774 7 9 C4.03 8.505 4.03 8.505 1 8 C0.02391783 5.07175348 -0.08226668 3.04386724 0 0 Z " fill="#AF9D9B" transform="translate(365,336)"/>
<path d="M0 0 C0.33 0 0.66 0 1 0 C1.33 1.65 1.66 3.3 2 5 C2.66 5 3.32 5 4 5 C4 5.66 4 6.32 4 7 C3.34 7 2.68 7 2 7 C2 7.66 2 8.32 2 9 C0.68 9.33 -0.64 9.66 -2 10 C-2.625 7.625 -2.625 7.625 -3 5 C-2.34 4.34 -1.68 3.68 -1 3 C-0.67 2.01 -0.34 1.02 0 0 Z " fill="#9D8480" transform="translate(58,232)"/>
<path d="M0 0 C-0.33 0.66 -0.66 1.32 -1 2 C-3.64 2 -6.28 2 -9 2 C-9.33 3.32 -9.66 4.64 -10 6 C-10.66 5.67 -11.32 5.34 -12 5 C-13.67654729 5.27942455 -15.34608154 5.60828247 -17 6 C-15.49631918 2.99263836 -13.23800706 2.59983611 -10.1875 1.3125 C-9.12917969 0.85488281 -8.07085937 0.39726562 -6.98046875 -0.07421875 C-4.01633704 -0.99492545 -2.82503443 -1.12864571 0 0 Z " fill="#917C7B" transform="translate(474,206)"/>
<path d="M0 0 C0.8723412 2.99480917 1.10829766 5.63575911 1.0625 8.75 C1.05347656 9.54921875 1.04445313 10.3484375 1.03515625 11.171875 C1.01775391 12.07679688 1.01775391 12.07679688 1 13 C0.67 13 0.34 13 0 13 C-0.33 14.98 -0.66 16.96 -1 19 C-1.33 19 -1.66 19 -2 19 C-2.05451714 16.95863605 -2.09302485 14.91684144 -2.125 12.875 C-2.14820313 11.73804688 -2.17140625 10.60109375 -2.1953125 9.4296875 C-1.99672109 5.94242233 -1.2524801 3.2446138 0 0 Z " fill="#7F676B" transform="translate(431,175)"/>
<path d="M0 0 C2.99739756 1.74042439 3.88530089 2.60674592 4.875 6 C5 9 5 9 3 12 C0.01485372 7.89542386 -0.2954439 5.02254631 0 0 Z " fill="#B59D9A" transform="translate(387,164)"/>
<path d="M0 0 C0.66 0.66 1.32 1.32 2 2 C1.67 2.66 1.34 3.32 1 4 C-3.29 4 -7.58 4 -12 4 C-12 3.34 -12 2.68 -12 2 C-10.95199219 1.90912109 -10.95199219 1.90912109 -9.8828125 1.81640625 C-8.97273437 1.73261719 -8.06265625 1.64882812 -7.125 1.5625 C-6.22007812 1.48128906 -5.31515625 1.40007812 -4.3828125 1.31640625 C-1.98889139 1.13010715 -1.98889139 1.13010715 0 0 Z " fill="#96897B" transform="translate(259,114)"/>
<path d="M0 0 C1.33332095 2.6666419 0.67102033 4.16680303 0 7 C-0.99 7.33 -1.98 7.66 -3 8 C-2.67 8.99 -2.34 9.98 -2 11 C-3.65 11.33 -5.3 11.66 -7 12 C-5.44298069 7.32894208 -2.91552627 3.91294315 0 0 Z " fill="#A17F7D" transform="translate(86,170)"/>
<path d="M0 0 C0 0.99 0 1.98 0 3 C0.99 3.33 1.98 3.66 3 4 C-4.75 3.25 -4.75 3.25 -9 -1 C-5.23375329 -2.25541557 -3.62811066 -1.37061958 0 0 Z " fill="#E0C5C0" transform="translate(43,371)"/>
<path d="M0 0 C1 2 1 2 0.5 3.8125 C-0.11009506 6.48166589 0.34243737 8.36974946 1 11 C-1.5625 8.75 -1.5625 8.75 -4 6 C-3.8125 3.6875 -3.8125 3.6875 -3 2 C-2.34 2.33 -1.68 2.66 -1 3 C-0.67 2.01 -0.34 1.02 0 0 Z " fill="#AF9A94" transform="translate(82,368)"/>
<path d="M0 0 C3.26008643 3.16952847 6.22237877 6.39937989 9 10 C8.67 10.66 8.34 11.32 8 12 C7.01 12 6.02 12 5 12 C2.94356259 8.07407404 1.31061591 4.23429756 0 0 Z " fill="#9D8A89" transform="translate(210,354)"/>
<path d="M0 0 C0.66 0.33 1.32 0.66 2 1 C2.35288435 4.7935068 2.28393415 6.55941253 0.1875 9.8125 C-2 12 -2 12 -5 13 C-5 9 -5 9 -3.125 6.75 C-1 5 -1 5 1 5 C0.67 3.35 0.34 1.7 0 0 Z " fill="#9D8787" transform="translate(475,351)"/>
<path d="M0 0 C1.61648437 0.04060547 1.61648437 0.04060547 3.265625 0.08203125 C4.08546875 0.11683594 4.9053125 0.15164063 5.75 0.1875 C5.75 0.5175 5.75 0.8475 5.75 1.1875 C2.45 1.1875 -0.85 1.1875 -4.25 1.1875 C-4.91 2.5075 -5.57 3.8275 -6.25 5.1875 C-7.57 4.5275 -8.89 3.8675 -10.25 3.1875 C-6.86416198 0.05642164 -4.53890538 -0.14800778 0 0 Z " fill="#9E8786" transform="translate(246.25,323.8125)"/>
<path d="M0 0 C0.99 0.33 1.98 0.66 3 1 C3 1.66 3 2.32 3 3 C4.32 2.67 5.64 2.34 7 2 C6.67 2.66 6.34 3.32 6 4 C5.34 4 4.68 4 4 4 C3.67 4.66 3.34 5.32 3 6 C0.9375 6.625 0.9375 6.625 -1 7 C-1.66 5.35 -2.32 3.7 -3 2 C-2.01 2 -1.02 2 0 2 C0 1.34 0 0.68 0 0 Z " fill="#E3CCC6" transform="translate(179,153)"/>
<path d="M0 0 C1.32 0.33 2.64 0.66 4 1 C4 1.66 4 2.32 4 3 C4.763125 2.9175 5.52625 2.835 6.3125 2.75 C9 3 9 3 10.8125 5 C11.204375 5.66 11.59625 6.32 12 7 C11.01 7.33 10.02 7.66 9 8 C8.34 7.01 7.68 6.02 7 5 C6.071875 5.309375 6.071875 5.309375 5.125 5.625 C4.42375 5.74875 3.7225 5.8725 3 6 C2.34 5.34 1.68 4.68 1 4 C1.33 3.01 1.66 2.02 2 1 C1.34 0.67 0.68 0.34 0 0 Z " fill="#DDCBC5" transform="translate(299,136)"/>
<path d="M0 0 C0 0.66 0 1.32 0 2 C-0.66 2 -1.32 2 -2 2 C-2.33 2.99 -2.66 3.98 -3 5 C-3.99 5.33 -4.98 5.66 -6 6 C-6 6.66 -6 7.32 -6 8 C-6.99 7.67 -7.98 7.34 -9 7 C-8.875 5.1875 -8.875 5.1875 -8 3 C-2.96428571 0 -2.96428571 0 0 0 Z " fill="#A48B8A" transform="translate(93,123)"/>
<path d="M0 0 C5.57142857 5.14285714 5.57142857 5.14285714 6 9 C5.01 9 4.02 9 3 9 C2.67 7.68 2.34 6.36 2 5 C1.01 5.33 0.02 5.66 -1 6 C-0.67 4.02 -0.34 2.04 0 0 Z " fill="#A79090" transform="translate(55,168)"/>
<path d="M0 0 C3.39417765 3.12621626 5.6062718 5.56541027 7 10 C4.03 9.505 4.03 9.505 1 9 C1 8.01 1 7.02 1 6 C0.67619874 4.66431979 0.34342449 3.33076989 0 2 C0 1.34 0 0.68 0 0 Z " fill="#9A8281" transform="translate(400,162)"/>
<path d="M0 0 C1.33333333 1.33333333 2.66666667 2.66666667 4 4 C-0.625 7 -0.625 7 -4 7 C-2.92598892 4.08482708 -2.22189824 2.22189824 0 0 Z " fill="#B9A39E" transform="translate(275,363)"/>
<path d="M0 0 C2 3 2 3 1.3125 6.5 C0.15493615 9.58683693 -0.4589912 11.0364932 -3 13 C-2.45144652 8.428721 -1.58255197 4.32564205 0 0 Z " fill="#AA8F8F" transform="translate(419,319)"/>
<path d="M0 0 C2.5999298 2.51027705 4.99091227 4.9863684 7 8 C7 8.66 7 9.32 7 10 C4.83125748 9.49396008 3.00032373 9.00016187 1 8 C0.40644386 5.35139573 0.25790731 2.70802678 0 0 Z " fill="#AC9291" transform="translate(177,308)"/>
<path d="M0 0 C3.95820859 0.56545837 6.6659053 1.80902348 10 4 C8.1875 5.0625 8.1875 5.0625 6 6 C5.01 5.67 4.02 5.34 3 5 C2.6278958 3.67696283 2.29369827 2.34262065 2 1 C1.34 0.67 0.68 0.34 0 0 Z " fill="#AE9A99" transform="translate(324,306)"/>
<path d="M0 0 C4 0 4 0 6 1 C6 2.32 6 3.64 6 5 C3.69 5 1.38 5 -1 5 C-0.67 3.35 -0.34 1.7 0 0 Z " fill="#DCC1BD" transform="translate(212,177)"/>
<path d="M0 0 C4.60853797 0.72008406 8.67237409 2.31295939 13 4 C12.360625 4.12375 11.72125 4.2475 11.0625 4.375 C10.381875 4.58125 9.70125 4.7875 9 5 C8.67 5.66 8.34 6.32 8 7 C8 6.34 8 5.68 8 5 C6.68 5 5.36 5 4 5 C4 4.01 4 3.02 4 2 C2.68 1.34 1.36 0.68 0 0 Z " fill="#9B8E88" transform="translate(280,127)"/>
<path d="M0 0 C4.35535069 1.16142685 6.64619703 2.07699505 9 6 C8.67 6.66 8.34 7.32 8 8 C6 7 6 7 5 5 C2.97536745 4.34786708 2.97536745 4.34786708 1 4 C0.67 2.68 0.34 1.36 0 0 Z " fill="#AC9599" transform="translate(400,123)"/>
<path d="M0 0 C2.475 0.99 2.475 0.99 5 2 C5 2.66 5 3.32 5 4 C5.66 4 6.32 4 7 4 C7.33 5.65 7.66 7.3 8 9 C6.84775972 8.07038578 5.70340824 7.1309875 4.5625 6.1875 C3.60537109 5.40439453 3.60537109 5.40439453 2.62890625 4.60546875 C1 3 1 3 0 0 Z " fill="#AE9694" transform="translate(5,310)"/>
<path d="M0 0 C0.99 1.32 1.98 2.64 3 4 C1.38405168 6.04119788 -0.2856382 8.04072937 -2 10 C-2.66 10 -3.32 10 -4 10 C-2.8905928 6.51329166 -1.73662334 3.22515763 0 0 Z " fill="#A1868B" transform="translate(74,189)"/>
<path d="M0 0 C1.98 0 3.96 0 6 0 C5.67 1.65 5.34 3.3 5 5 C1.62537285 4.45276317 -0.08235 3.9451 -3 2 C-2.01 2 -1.02 2 0 2 C0 1.34 0 0.68 0 0 Z " fill="#DDC3BE" transform="translate(302,186)"/>
<path d="M0 0 C3.71599191 -0.20086443 4.77208445 -0.1519437 8 2 C8 2.66 8 3.32 8 4 C7.01 4 6.02 4 5 4 C5 4.66 5 5.32 5 6 C4.34 5.67 3.68 5.34 3 5 C3.33 4.34 3.66 3.68 4 3 C2.68 3.33 1.36 3.66 0 4 C0 2.68 0 1.36 0 0 Z " fill="#D4C6BF" transform="translate(281,154)"/>
<path d="M0 0 C4.4785979 -0.17563129 8.02584132 -0.22085338 12 2 C12.33 2.99 12.66 3.98 13 5 C11.39402675 4.54803755 9.79027492 4.08817673 8.1875 3.625 C6.84751953 3.24214844 6.84751953 3.24214844 5.48046875 2.8515625 C3 2 3 2 0 0 Z " fill="#AB8987" transform="translate(120,144)"/>
<path d="M0 0 C6.93 0.495 6.93 0.495 14 1 C14.33 1.99 14.66 2.98 15 4 C9.76119922 3.44854729 5.02649303 2.57077907 0 1 C0 0.67 0 0.34 0 0 Z " fill="#887E7A" transform="translate(273,141)"/>
<path d="M0 0 C0.66 1.32 1.32 2.64 2 4 C-0.64 5.65 -3.28 7.3 -6 9 C-5.67 8.01 -5.34 7.02 -5 6 C-4.34 6 -3.68 6 -3 6 C-2.87625 5.38125 -2.7525 4.7625 -2.625 4.125 C-2 2 -2 2 0 0 Z " fill="#9C8582" transform="translate(270,370)"/>
<path d="M0 0 C0.66 0.99 1.32 1.98 2 3 C1.01 3.495 1.01 3.495 0 4 C-0.65555119 6.52733235 -0.65555119 6.52733235 -1 9 C-1.66 9 -2.32 9 -3 9 C-3.33 9.99 -3.66 10.98 -4 12 C-4.66 12 -5.32 12 -6 12 C-4.43358249 7.69235185 -2.31663844 3.93828536 0 0 Z " fill="#998786" transform="translate(405,356)"/>
<path d="M0 0 C0 3.33156142 -0.45664761 5.06028115 -2 8 C-4.625 9.8125 -4.625 9.8125 -7 11 C-6.67 9.68 -6.34 8.36 -6 7 C-5.34 7 -4.68 7 -4 7 C-3.71125 6.21625 -3.4225 5.4325 -3.125 4.625 C-2 2 -2 2 0 0 Z " fill="#8B7A77" transform="translate(283,352)"/>
<path d="M0 0 C4.26086957 6.39130435 4.26086957 6.39130435 3.625 10.3125 C3.41875 10.869375 3.2125 11.42625 3 12 C3 11.34 3 10.68 3 10 C2.34 10 1.68 10 1 10 C-0.60725635 6.78548731 -0.05748185 3.56387464 0 0 Z " fill="#A88C8F" transform="translate(75,328)"/>
<path d="M0 0 C0.66 0.33 1.32 0.66 2 1 C0.625 3 0.625 3 -1 5 C-1.66 5 -2.32 5 -3 5 C-3 5.66 -3 6.32 -3 7 C-5.31 7.66 -7.62 8.32 -10 9 C-6.83047153 5.73991357 -3.60062011 2.77762123 0 0 Z " fill="#937776" transform="translate(150,315)"/>
<path d="M0 0 C0.639375 0.4125 1.27875 0.825 1.9375 1.25 C3.26639903 1.92546249 4.59919608 2.59336856 5.9375 3.25 C4.52126784 3.30447047 3.10441809 3.34300508 1.6875 3.375 C0.89859375 3.39820313 0.1096875 3.42140625 -0.703125 3.4453125 C-3.26981941 3.2328378 -4.8541067 2.53654105 -7.0625 1.25 C-2.64144737 -0.96052632 -2.64144737 -0.96052632 0 0 Z " fill="#A3898A" transform="translate(46.0625,281.75)"/>
<path d="M0 0 C2.60608273 2.5162178 4.89381685 5.05134359 7 8 C6.67 8.66 6.34 9.32 6 10 C3 9 3 9 1.3125 6.6875 C0 4 0 4 0 0 Z " fill="#A6908F" transform="translate(45,220)"/>
<path d="M0 0 C0.89203125 0.01804688 1.7840625 0.03609375 2.703125 0.0546875 C3.71632813 0.08949219 3.71632813 0.08949219 4.75 0.125 C5.41 1.445 6.07 2.765 6.75 4.125 C5.43 4.125 4.11 4.125 2.75 4.125 C2.75 3.135 2.75 2.145 2.75 1.125 C-3.19 1.62 -3.19 1.62 -9.25 2.125 C-5.38209997 0.19104999 -4.0999541 -0.10789353 0 0 Z " fill="#816162" transform="translate(483.25,202.875)"/>
<path d="M0 0 C5.27749285 0.53851968 9.25645564 1.77343836 14 4 C13.34 5.32 12.68 6.64 12 8 C11.505 7.401875 11.01 6.80375 10.5 6.1875 C7.20397873 3.30348139 4.14385374 2.38128458 0 1 C0 0.67 0 0.34 0 0 Z " fill="#82696A" transform="translate(295,188)"/>
<path d="M0 0 C1.32 0.33 2.64 0.66 4 1 C4.33 2.32 4.66 3.64 5 5 C5.66 5 6.32 5 7 5 C7.33 5.99 7.66 6.98 8 8 C4.82461668 7.65978036 3.97723135 6.97533396 1.75 4.5625 C0 2 0 2 0 0 Z " fill="#BA9C9D" transform="translate(31,185)"/>
<path d="M0 0 C0.33 0.66 0.66 1.32 1 2 C1.99 2.33 2.98 2.66 4 3 C0.04 3.99 -3.92 4.98 -8 6 C-7.67 4.68 -7.34 3.36 -7 2 C-5.02 2 -3.04 2 -1 2 C-0.67 1.34 -0.34 0.68 0 0 Z " fill="#998181" transform="translate(203,183)"/>
<path d="M0 0 C-6.625 3.125 -6.625 3.125 -10 2 C-9.67 1.01 -9.34 0.02 -9 -1 C-5.22102349 -2.0497157 -3.35080929 -2.10976881 0 0 Z " fill="#AE8D8E" transform="translate(350,154)"/>
<path d="M0 0 C0 1.32 0 2.64 0 4 C-3.3 3.01 -6.6 2.02 -10 1 C-5.64467851 -1.17766075 -4.53374042 -1.03039555 0 0 Z " fill="#9D908C" transform="translate(300,146)"/>
<path d="M0 0 C1.32 0.66 2.64 1.32 4 2 C4 2.99 4 3.98 4 5 C-4.57142857 5.28571429 -4.57142857 5.28571429 -8 3 C-5.36 3.33 -2.72 3.66 0 4 C0 2.68 0 1.36 0 0 Z " fill="#DAC7C0" transform="translate(282,137)"/>
<path d="M0 0 C4.455 1.98 4.455 1.98 9 4 C8.01 4.99 7.02 5.98 6 7 C3.46440887 5.73220443 1.89943078 4.08937386 0 2 C0 1.34 0 0.68 0 0 Z " fill="#A89394" transform="translate(295,77)"/>
<path d="M0 0 C0 0.66 0 1.32 0 2 C0.99 2.33 1.98 2.66 3 3 C-5.57142857 2.14285714 -5.57142857 2.14285714 -9 0 C-5.93109813 -1.53445094 -3.29905734 -0.54984289 0 0 Z " fill="#9F898B" transform="translate(204,453)"/>
<path d="M0 0 C1.04449911 3.13349732 0.93423645 3.98968256 0 7 C-1.32 7 -2.64 7 -4 7 C-4 7.66 -4 8.32 -4 9 C-4.66 8.67 -5.32 8.34 -6 8 C-4.02 5.36 -2.04 2.72 0 0 Z " fill="#A18688" transform="translate(291,341)"/>
<path d="M0 0 C1.1700097 3.91736581 0.69584017 6.97959015 0 11 C-0.99 11.33 -1.98 11.66 -3 12 C-3.33 12.66 -3.66 13.32 -4 14 C-3.36843005 8.94744036 -1.86540627 4.70406799 0 0 Z " fill="#897373" transform="translate(415,332)"/>
<path d="M0 0 C0 1.65 0 3.3 0 5 C-1.96466413 6.06775224 -3.96855359 7.06553465 -6 8 C-6.66 7.67 -7.32 7.34 -8 7 C-6.8572081 5.83035398 -5.71068285 4.66435444 -4.5625 3.5 C-3.92441406 2.8503125 -3.28632813 2.200625 -2.62890625 1.53125 C-1 0 -1 0 0 0 Z " fill="#9E8886" transform="translate(299,275)"/>
<path d="M0 0 C3.72433382 1.2125738 7.37802806 2.50859979 11 4 C10.01 4.33 9.02 4.66 8 5 C7.67 5.66 7.34 6.32 7 7 C6.67 6.34 6.34 5.68 6 5 C4.02477154 3.95191959 2.02518491 2.9479589 0 2 C0 1.34 0 0.68 0 0 Z " fill="#A59391" transform="translate(252,57)"/>
<path d="M0 0 C-0.33 0.66 -0.66 1.32 -1 2 C-4.96 1.67 -8.92 1.34 -13 1 C-13 0.67 -13 0.34 -13 0 C-8.34462607 -0.83796731 -4.62921525 -1.0161692 0 0 Z " fill="#A2898C" transform="translate(226,457)"/>
<path d="M0 0 C0 1.98 0 3.96 0 6 C-1.32 5.67 -2.64 5.34 -4 5 C-4 3.68 -4 2.36 -4 1 C-2 0 -2 0 0 0 Z " fill="#A3928E" transform="translate(425,370)"/>
<path d="M0 0 C4.42857143 5.14285714 4.42857143 5.14285714 5 9 C4.01 9 3.02 9 2 9 C1.67 8.01 1.34 7.02 1 6 C0.01 5.67 -0.98 5.34 -2 5 C-1.34 3.35 -0.68 1.7 0 0 Z " fill="#A7948F" transform="translate(380,356)"/>
<path d="M0 0 C0.33 0.66 0.66 1.32 1 2 C1.66 2.33 2.32 2.66 3 3 C1.75 5 1.75 5 0 7 C-1.32 7 -2.64 7 -4 7 C-2.79618552 4.50638429 -1.54571278 2.31856917 0 0 Z " fill="#B69C9C" transform="translate(296,334)"/>
<path d="M0 0 C0.33 0.99 0.66 1.98 1 3 C0.34 3 -0.32 3 -1 3 C-1 3.66 -1 4.32 -1 5 C-1.99 5.33 -2.98 5.66 -4 6 C-4.33 5.34 -4.66 4.68 -5 4 C-5.66 3.67 -6.32 3.34 -7 3 C-2.25 0 -2.25 0 0 0 Z " fill="#AF8F8C" transform="translate(282,289)"/>
<path d="M0 0 C0.33 0 0.66 0 1 0 C1 2.97 1 5.94 1 9 C1.66 9.33 2.32 9.66 3 10 C2.34 10 1.68 10 1 10 C0.67 10.66 0.34 11.32 0 12 C-1.12256131 9.75487738 -1.13413762 8.48543351 -1.125 6 C-1.12886719 4.948125 -1.12886719 4.948125 -1.1328125 3.875 C-1 2 -1 2 0 0 Z " fill="#BCA89F" transform="translate(53,266)"/>
<path d="M0 0 C4.61691161 0.52464905 6.09987886 1.07490914 10 4 C6.7 3.67 3.4 3.34 0 3 C0 2.01 0 1.02 0 0 Z " fill="#B09798" transform="translate(20,205)"/>
<path d="M0 0 C2.475 0.99 2.475 0.99 5 2 C4.67 2.99 4.34 3.98 4 5 C4.66 5.33 5.32 5.66 6 6 C5.34 6 4.68 6 4 6 C3.67 6.99 3.34 7.98 3 9 C2.01 6.03 1.02 3.06 0 0 Z " fill="#B59A93" transform="translate(406,201)"/>
<path d="M0 0 C0 0.66 0 1.32 0 2 C-2.97 2.66 -5.94 3.32 -9 4 C-8.67 3.01 -8.34 2.02 -8 1 C-5.29120665 -0.35439668 -2.99066732 -0.06501451 0 0 Z " fill="#B48F94" transform="translate(300,451)"/>
<path d="M0 0 C2.97 0.495 2.97 0.495 6 1 C6 1.99 6 2.98 6 4 C5.01 4.495 5.01 4.495 4 5 C3.67 5.66 3.34 6.32 3 7 C0 2.25 0 2.25 0 0 Z " fill="#C9ADA7" transform="translate(17,356)"/>
<path d="M0 0 C3.63 0 7.26 0 11 0 C11 0.99 11 1.98 11 3 C9.54077307 2.88590407 8.08259402 2.75834456 6.625 2.625 C5.40683594 2.52058594 5.40683594 2.52058594 4.1640625 2.4140625 C2 2 2 2 0 0 Z " fill="#DAC1C2" transform="translate(230,298)"/>
<path d="M0 0 C0 0.33 0 0.66 0 1 C-1.11375 1.12375 -2.2275 1.2475 -3.375 1.375 C-7.03103677 1.6465813 -7.03103677 1.6465813 -9 4 C-9 2.35 -9 0.7 -9 -1 C-5.79937313 -2.60031344 -3.27728194 -1.03173691 0 0 Z " fill="#A58E8F" transform="translate(448,284)"/>
<path d="M0 0 C0.99 0 1.98 0 3 0 C1.73058503 3.91402949 0.48832306 5.79072873 -3 8 C-3 7.01 -3 6.02 -3 5 C-2.34 5 -1.68 5 -1 5 C-0.67 3.35 -0.34 1.7 0 0 Z " fill="#A38E8D" transform="translate(480,260)"/>
<path d="M0 0 C0.33 0 0.66 0 1 0 C3.27678571 8.03571429 3.27678571 8.03571429 2 12 C1.67 10.35 1.34 8.7 1 7 C0.34 7 -0.32 7 -1 7 C-1.33 5.35 -1.66 3.7 -2 2 C-1.34 2 -0.68 2 0 2 C0 1.34 0 0.68 0 0 Z " fill="#947E7E" transform="translate(328,200)"/>
<path d="M0 0 C2.31 0 4.62 0 7 0 C4.65454672 2.34545328 3.04014162 2.95508888 -0.26171875 3.09765625 C-1.06222656 3.08605469 -1.86273438 3.07445312 -2.6875 3.0625 C-3.89986328 3.04896484 -3.89986328 3.04896484 -5.13671875 3.03515625 C-6.05904297 3.01775391 -6.05904297 3.01775391 -7 3 C-7 2.67 -7 2.34 -7 2 C-4.69 2 -2.38 2 0 2 C0 1.34 0 0.68 0 0 Z " fill="#988282" transform="translate(441,197)"/>
<path d="M0 0 C0.33 0.66 0.66 1.32 1 2 C1.99 2.33 2.98 2.66 4 3 C2.7934375 3.433125 2.7934375 3.433125 1.5625 3.875 C-1.1326468 4.73262568 -1.1326468 4.73262568 -2 7 C-2.66 7 -3.32 7 -4 7 C-2.79618552 4.50638429 -1.54571278 2.31856917 0 0 Z " fill="#A58D8C" transform="translate(91,163)"/>
<path d="M0 0 C0.763125 0.20625 1.52625 0.4125 2.3125 0.625 C-0.21706528 3.7166909 -2.91204612 4.53431332 -6.6875 5.625 C-6.375 3.75 -6.375 3.75 -5.6875 1.625 C-2.6875 -0.375 -2.6875 -0.375 0 0 Z " fill="#E1C8C4" transform="translate(189.6875,148.375)"/>
<path d="M0 0 C0.33 0.66 0.66 1.32 1 2 C1.66 2 2.32 2 3 2 C3.33 2.99 3.66 3.98 4 5 C0.7 4.01 -2.6 3.02 -6 2 C-6 1.67 -6 1.34 -6 1 C-4.02 0.67 -2.04 0.34 0 0 Z " fill="#B19696" transform="translate(111,137)"/>
<path d="M0 0 C0 0.99 0 1.98 0 3 C-2.31 3.66 -4.62 4.32 -7 5 C-7.66 4.34 -8.32 3.68 -9 3 C-2.25 0 -2.25 0 0 0 Z " fill="#A08B8A" transform="translate(118,113)"/>
<path d="M0 0 C2.375 -0.125 2.375 -0.125 5 0 C5.66 0.66 6.32 1.32 7 2 C7.66 2.33 8.32 2.66 9 3 C9 3.66 9 4.32 9 5 C2.25 3.375 2.25 3.375 0 0 Z " fill="#A88180" transform="translate(29,369)"/>
<path d="M0 0 C0.99 1.32 1.98 2.64 3 4 C1.68 4.99 0.36 5.98 -1 7 C-1.66 6.67 -2.32 6.34 -3 6 C-1.125 1.125 -1.125 1.125 0 0 Z " fill="#AF9593" transform="translate(113,354)"/>
<path d="M0 0 C-2.68841859 2.25245881 -4.64641875 3.88213958 -8 5 C-8 3.68 -8 2.36 -8 1 C-5.29120665 -0.35439668 -2.99066732 -0.06501451 0 0 Z " fill="#B19A9A" transform="translate(293,301)"/>
<path d="M0 0 C4.46840411 0.49648935 5.68987756 0.68987756 9 4 C6.03 3.67 3.06 3.34 0 3 C0 2.01 0 1.02 0 0 Z " fill="#A28E8C" transform="translate(473,296)"/>
<path d="M0 0 C1.65 0.33 3.3 0.66 5 1 C4.67 1.99 4.34 2.98 4 4 C2.02 4.33 0.04 4.66 -2 5 C-1.34 4.67 -0.68 4.34 0 4 C0 2.68 0 1.36 0 0 Z " fill="#AA9594" transform="translate(459,276)"/>
<path d="M0 0 C0.33 0.66 0.66 1.32 1 2 C0.14883791 4.43189168 -0.84845643 6.69691285 -2 9 C-3.32 8.67 -4.64 8.34 -6 8 C-4.02 5.36 -2.04 2.72 0 0 Z " fill="#90817D" transform="translate(305,266)"/>
<path d="M0 0 C2 3 2 3 1.625 5.1875 C1.41875 5.785625 1.2125 6.38375 1 7 C0.34 7 -0.32 7 -1 7 C-1 6.34 -1 5.68 -1 5 C-1.66 4.67 -2.32 4.34 -3 4 C-2.01 2.68 -1.02 1.36 0 0 Z " fill="#B6A099" transform="translate(458,249)"/>
<path d="M0 0 C0.77321882 2.98241547 1.41196203 5.97580475 2 9 C1.34 9 0.68 9 0 9 C-0.66 9.66 -1.32 10.32 -2 11 C-1.125 3.375 -1.125 3.375 0 0 Z " fill="#86736F" transform="translate(2,206)"/>
<path d="M0 0 C1.32 0 2.64 0 4 0 C4.66 1.32 5.32 2.64 6 4 C5.01 4.99 4.02 5.98 3 7 C2.01 4.69 1.02 2.38 0 0 Z " fill="#B39F98" transform="translate(397,185)"/>
<path d="M0 0 C0.33 0 0.66 0 1 0 C2.10228696 4.40914783 2.07654536 8.48382401 2 13 C1.67 13 1.34 13 1 13 C1 10.69 1 8.38 1 6 C0.01 5.67 -0.98 5.34 -2 5 C-1 2 -1 2 0 0 Z " fill="#A08D8E" transform="translate(61,177)"/>
<path d="M0 0 C3.67230705 3.07999946 4.56802365 5.2482602 5 10 C2.72381819 7.8322078 0.67045176 5.67272281 -1 3 C-0.67 2.01 -0.34 1.02 0 0 Z " fill="#9C847F" transform="translate(392,175)"/>
<path d="M0 0 C0.99 0.33 1.98 0.66 3 1 C2.34 1 1.68 1 1 1 C0.67 2.65 0.34 4.3 0 6 C-3 6 -3 6 -6 5 C-5.34 4.34 -4.68 3.68 -4 3 C-3.01 3 -2.02 3 -1 3 C-0.67 2.01 -0.34 1.02 0 0 Z " fill="#DCC4C1" transform="translate(445,162)"/>
<path d="M0 0 C2.97 0.99 5.94 1.98 9 3 C9 3.33 9 3.66 9 4 C6.36 4 3.72 4 1 4 C0.67 2.68 0.34 1.36 0 0 Z " fill="#AB9193" transform="translate(390,119)"/>
<path d="M0 0 C-0.66 0 -1.32 0 -2 0 C-2 0.66 -2 1.32 -2 2 C-5.83887763 3.48320272 -8.06204091 4.22419163 -12 3 C-10.75823305 2.29773859 -9.50614401 1.61370891 -8.25 0.9375 C-7.20585937 0.36322266 -7.20585937 0.36322266 -6.140625 -0.22265625 C-3.63859372 -1.1312406 -2.4667645 -0.88336837 0 0 Z " fill="#87706F" transform="translate(214,71)"/>
<path d="M0 0 C0 0.99 0 1.98 0 3 C0.66 3.33 1.32 3.66 2 4 C-1.63 3.34 -5.26 2.68 -9 2 C-9 1.67 -9 1.34 -9 1 C-5.846632 0.29925156 -3.27275026 0 0 0 Z " fill="#AA8E90" transform="translate(193,449)"/>
<path d="M0 0 C0 0.66 0 1.32 0 2 C-5.75 5 -5.75 5 -8 5 C-7 2 -7 2 -5.125 0.8125 C-3 0 -3 0 0 0 Z " fill="#B09199" transform="translate(328,441)"/>
<path d="M0 0 C0.99 0.99 1.98 1.98 3 3 C1.35 4.98 -0.3 6.96 -2 9 C-2.33 8.01 -2.66 7.02 -3 6 C-2.04701223 4.63266972 -1.04625409 3.29735507 0 2 C0 1.34 0 0.68 0 0 Z " fill="#C2ABA8" transform="translate(406,378)"/>
<path d="M0 0 C0.66 0 1.32 0 2 0 C2 0.66 2 1.32 2 2 C3.32 2.33 4.64 2.66 6 3 C3.59454362 4.20272819 2.05003047 4.10071472 -0.625 4.0625 C-1.85089844 4.04896484 -1.85089844 4.04896484 -3.1015625 4.03515625 C-4.04128906 4.01775391 -4.04128906 4.01775391 -5 4 C-5 3.67 -5 3.34 -5 3 C-3.35 3 -1.7 3 0 3 C0 2.01 0 1.02 0 0 Z " fill="#B99E9C" transform="translate(430,373)"/>
<path d="M0 0 C2.5 2.3125 2.5 2.3125 5 5 C5 5.99 5 6.98 5 8 C2.5 6.8125 2.5 6.8125 0 5 C-0.3125 2.3125 -0.3125 2.3125 0 0 Z " fill="#A48A8C" transform="translate(200,340)"/>
<path d="M0 0 C2.79872437 2.52788007 4.45773019 4.20411134 5 8 C1.59575156 6.86525052 0.78346291 6.03188696 -1 3 C-0.67 2.01 -0.34 1.02 0 0 Z " fill="#A28585" transform="translate(234,342)"/>
<path d="M0 0 C0.66 0.33 1.32 0.66 2 1 C0.1875 3.5 0.1875 3.5 -2 6 C-2.99 6 -3.98 6 -5 6 C-4.75 4.125 -4.75 4.125 -4 2 C-2.0625 0.6875 -2.0625 0.6875 0 0 Z " fill="#DAC4BE" transform="translate(457,248)"/>
<path d="M0 0 C1.04184255 3.38598829 1.23042499 6.46681687 1 10 C0.34 10.66 -0.32 11.32 -1 12 C-1.33 11.67 -1.66 11.34 -2 11 C-1.62206515 7.09467317 -1.23947487 3.7184246 0 0 Z " fill="#DAC2BF" transform="translate(61,226)"/>
<path d="M0 0 C-1.375 2 -1.375 2 -3 4 C-3.66 4 -4.32 4 -5 4 C-5.99 4.33 -6.98 4.66 -8 5 C-8 4.01 -8 3.02 -8 2 C-4.77208445 -0.1519437 -3.71599191 -0.20086443 0 0 Z " fill="#A28F89" transform="translate(441,188)"/>
<path d="M0 0 C-0.33 1.32 -0.66 2.64 -1 4 C-3.31 3.34 -5.62 2.68 -8 2 C-4.77208445 -0.1519437 -3.71599191 -0.20086443 0 0 Z " fill="#C9B3AB" transform="translate(206,147)"/>
<path d="M0 0 C-3.78187881 1.83691257 -5.94568308 2.15837626 -10 1 C-4.25 -2.83333333 -4.25 -2.83333333 0 0 Z " fill="#C7B1A6" transform="translate(206,145)"/>
<path d="M0 0 C1.65 0.33 3.3 0.66 5 1 C2.37801226 3.15377564 0.35595828 4.40072174 -3 5 C-2.67 4.01 -2.34 3.02 -2 2 C-1.34 2 -0.68 2 0 2 C0 1.34 0 0.68 0 0 Z " fill="#99818A" transform="translate(343,432)"/>
<path d="M0 0 C2.29633824 3.44450737 2.54016485 5.93812283 3 10 C2.34 10 1.68 10 1 10 C0.37542727 6.56484998 0 3.50935186 0 0 Z " fill="#A39090" transform="translate(256,364)"/>
<path d="M0 0 C1.2077558 3.62326739 0.54311128 4.64146369 -1 8 C-2 6 -3 4 -4 2 C-2.68 1.34 -1.36 0.68 0 0 Z " fill="#AB8E8B" transform="translate(430,336)"/>
<path d="M0 0 C1.33332095 2.6666419 0.67102033 4.16680303 0 7 C-1.32 7 -2.64 7 -4 7 C-2.92598892 4.08482708 -2.22189824 2.22189824 0 0 Z " fill="#8A7877" transform="translate(301,327)"/>
<path d="M0 0 C1.9453125 -0.29296875 1.9453125 -0.29296875 4.125 -0.1875 C5.40375 -0.125625 6.6825 -0.06375 8 0 C4.99382731 3.00617269 2.17618402 2.59585316 -2 3 C-1.34 2.01 -0.68 1.02 0 0 Z " fill="#A48C90" transform="translate(269,309)"/>
<path d="M0 0 C0.99 0.66 1.98 1.32 3 2 C3.99 2.33 4.98 2.66 6 3 C6.33 3.99 6.66 4.98 7 6 C3.22454612 4.90931332 0.52956528 4.0916909 -2 1 C-1.34 0.67 -0.68 0.34 0 0 Z " fill="#9D8684" transform="translate(203,301)"/>
<path d="M0 0 C1.98 0.99 3.96 1.98 6 3 C6 3.66 6 4.32 6 5 C3.69 4.67 1.38 4.34 -1 4 C-0.67 2.68 -0.34 1.36 0 0 Z " fill="#B09293" transform="translate(482,300)"/>
<path d="M0 0 C2.97 1.98 2.97 1.98 6 4 C5.67 4.66 5.34 5.32 5 6 C3.68 5.67 2.36 5.34 1 5 C0.67 3.35 0.34 1.7 0 0 Z " fill="#978181" transform="translate(196,278)"/>
<path d="M0 0 C2.475 0.495 2.475 0.495 5 1 C5.33 1.99 5.66 2.98 6 4 C3 5 3 5 0 4 C0 2.68 0 1.36 0 0 Z " fill="#AD918D" transform="translate(352,265)"/>
<path d="M0 0 C0.99 0.66 1.98 1.32 3 2 C2.25 3.9375 2.25 3.9375 1 6 C-1.125 6.75 -1.125 6.75 -3 7 C-3 6.34 -3 5.68 -3 5 C-2.01 5 -1.02 5 0 5 C-0.2784375 4.0409375 -0.2784375 4.0409375 -0.5625 3.0625 C-0.706875 2.381875 -0.85125 1.70125 -1 1 C-0.67 0.67 -0.34 0.34 0 0 Z " fill="#B19696" transform="translate(445,256)"/>
<path d="M0 0 C0.99 0.33 1.98 0.66 3 1 C2.67 4.63 2.34 8.26 2 12 C1.67 12 1.34 12 1 12 C0.67 8.04 0.34 4.08 0 0 Z " fill="#887170" transform="translate(421,251)"/>
<path d="M0 0 C1.32 0.33 2.64 0.66 4 1 C3.67 3.31 3.34 5.62 3 8 C1.0549 5.08235 0.54723683 3.37462715 0 0 Z " fill="#AC8E8B" transform="translate(412,216)"/>
<path d="M0 0 C0.66 0.33 1.32 0.66 2 1 C0.68 3.64 -0.64 6.28 -2 9 C-2.33 9 -2.66 9 -3 9 C-3 7.02 -3 5.04 -3 3 C-2.01 2.67 -1.02 2.34 0 2 C0 1.34 0 0.68 0 0 Z " fill="#A7908B" transform="translate(88,195)"/>
<path d="M0 0 C0.33 0.66 0.66 1.32 1 2 C0.2575 2.680625 0.2575 2.680625 -0.5 3.375 C-2.22609337 4.87635519 -2.22609337 4.87635519 -2 7 C-2.66 7 -3.32 7 -4 7 C-4 6.34 -4 5.68 -4 5 C-4.66 4.67 -5.32 4.34 -6 4 C-3.94766315 1.7522025 -2.99332739 0.9977758 0 0 Z " fill="#BDA6A1" transform="translate(440,191)"/>
<path d="M0 0 C0.33 0.99 0.66 1.98 1 3 C-0.32 3.99 -1.64 4.98 -3 6 C-3.66 5.67 -4.32 5.34 -5 5 C-4 2 -4 2 -1.9375 0.8125 C-1.298125 0.544375 -0.65875 0.27625 0 0 Z " fill="#A99494" transform="translate(454,191)"/>
<path d="M0 0 C0.33 0 0.66 0 1 0 C1.33 3.63 1.66 7.26 2 11 C1.01 10.67 0.02 10.34 -1 10 C-0.67 6.7 -0.34 3.4 0 0 Z " fill="#877473" transform="translate(163,171)"/>
<path d="M0 0 C4.875 1.75 4.875 1.75 6 4 C3.33333333 4 0.66666667 4 -2 4 C-2 3.34 -2 2.68 -2 2 C-1.34 2 -0.68 2 0 2 C0 1.34 0 0.68 0 0 Z " fill="#A68885" transform="translate(47,162)"/>
<path d="M0 0 C3.72433382 1.2125738 7.37802806 2.50859979 11 4 C9.25 5.125 9.25 5.125 7 6 C3.52714205 4.9476188 1.97255614 2.95883421 0 0 Z " fill="#8A787C" transform="translate(369,110)"/>
<path d="M0 0 C2.31 0.66 4.62 1.32 7 2 C6.67 2.99 6.34 3.98 6 5 C6 4.34 6 3.68 6 3 C4.35 3.66 2.7 4.32 1 5 C0.67 3.35 0.34 1.7 0 0 Z " fill="#DEC6C4" transform="translate(351,104)"/>
<path d="M0 0 C1.98 0.66 3.96 1.32 6 2 C5.67 2.99 5.34 3.98 5 5 C2.525 4.01 2.525 4.01 0 3 C0 2.01 0 1.02 0 0 Z " fill="#B29DA0" transform="translate(327,92)"/>
<path d="M0 0 C3 1 3 1 4.25 2.8125 C5.11637742 5.33943414 4.88492145 6.52221994 4 9 C3.67 7.35 3.34 5.7 3 4 C2.01 3.67 1.02 3.34 0 3 C0 2.01 0 1.02 0 0 Z " fill="#A38B8B" transform="translate(385,369)"/>
<path d="M0 0 C1.98 0 3.96 0 6 0 C6 0.66 6 1.32 6 2 C6.66 2.66 7.32 3.32 8 4 C6.02 4 4.04 4 2 4 C2 3.01 2 2.02 2 1 C1.34 0.67 0.68 0.34 0 0 Z " fill="#5F534E" transform="translate(51,363)"/>
<path d="M0 0 C0.99 0.66 1.98 1.32 3 2 C3 2.99 3 3.98 3 5 C2.01 5.33 1.02 5.66 0 6 C-0.66 4.35 -1.32 2.7 -2 1 C-1.34 0.67 -0.68 0.34 0 0 Z " fill="#BAA5A3" transform="translate(474,265)"/>
<path d="M0 0 C0.33 0.66 0.66 1.32 1 2 C-0.4375 4.625 -0.4375 4.625 -2 7 C-2.99 6.67 -3.98 6.34 -5 6 C-4.67 5.34 -4.34 4.68 -4 4 C-3.34 4 -2.68 4 -2 4 C-1.34 2.68 -0.68 1.36 0 0 Z " fill="#978983" transform="translate(450,259)"/>
<path d="M0 0 C1.33332095 2.6666419 0.67102033 4.16680303 0 7 C-1.32 7.33 -2.64 7.66 -4 8 C-2.25 2.25 -2.25 2.25 0 0 Z " fill="#947D7F" transform="translate(444,223)"/>
<path d="M0 0 C0.66 0.33 1.32 0.66 2 1 C2 2.32 2 3.64 2 5 C0.02 5.99 0.02 5.99 -2 7 C-1.125 1.125 -1.125 1.125 0 0 Z " fill="#DAC2BC" transform="translate(67,209)"/>
<path d="M0 0 C1.5625 1.75 1.5625 1.75 3 4 C2.6875 6.25 2.6875 6.25 2 8 C1.01 7.67 0.02 7.34 -1 7 C-0.67 4.69 -0.34 2.38 0 0 Z " fill="#8F7B7F" transform="translate(422,198)"/>
<path d="M0 0 C0.99 0 1.98 0 3 0 C3 1.98 3 3.96 3 6 C2.01 5.67 1.02 5.34 0 5 C0 3.35 0 1.7 0 0 Z " fill="#A78E92" transform="translate(329,187)"/>
<path d="M0 0 C0.6875 1.625 0.6875 1.625 1 4 C-0.4375 7.25 -0.4375 7.25 -2 10 C-2.33 10 -2.66 10 -3 10 C-3.36629408 5.72656908 -2.40814077 3.51187196 0 0 Z " fill="#BAA29B" transform="translate(93,184)"/>
<path d="M0 0 C0.66 0 1.32 0 2 0 C2.28875 0.61875 2.5775 1.2375 2.875 1.875 C3.93720042 4.13325765 3.93720042 4.13325765 6 6 C4.35 5.67 2.7 5.34 1 5 C1 4.34 1 3.68 1 3 C0.34 3 -0.32 3 -1 3 C-0.67 2.01 -0.34 1.02 0 0 Z " fill="#DDC1BC" transform="translate(113,136)"/>
<path d="M0 0 C3.82097239 0.53069061 6.06171403 1.49701566 9 4 C6.69 4 4.38 4 2 4 C1.34 2.68 0.68 1.36 0 0 Z " fill="#967777" transform="translate(347,101)"/>
<path d="M0 0 C0.66 0.33 1.32 0.66 2 1 C1.01 1.33 0.02 1.66 -1 2 C-1.33 2.99 -1.66 3.98 -2 5 C-3.65 4.67 -5.3 4.34 -7 4 C-4.61426621 2.10786631 -2.92824652 0.97608217 0 0 Z " fill="#AC9192" transform="translate(166,91)"/>
</svg>
